# MagicaVoxel @ Ephtracy

# group
o 

# material
mtllib Tree_03.mtl
usemtl palette

# normals
vn -1 0 0
vn 1 0 0
vn 0 0 1
vn 0 0 -1
vn 0 -1 0
vn 0 1 0

# texcoords
vt 0.869141 0.5
vt 0.900391 0.5

# verts
v -0.4 0.1 0.3
v -0.4 0.1 -0.2
v -0.4 0.3 0.3
v -0.4 0.3 0.1
v -0.4 0.5 0.1
v -0.4 0.5 -0.2
v -0.3 0 -0.2
v -0.3 0 -0.4
v -0.3 0.1 -0.2
v -0.3 0.2 -0.2
v -0.3 0.2 -0.4
v -0.2 -0.1 0.1
v -0.2 -0.1 0
v -0.2 0.1 0.1
v -0.2 0.1 0
v -0.2 0.3 0.3
v -0.2 0.3 0.1
v -0.2 0.5 0.3
v -0.2 0.5 0.1
v -0.1 -0.5 0.1
v -0.1 -0.5 -0.1
v -0.1 -0.1 0.1
v -0.1 -0.1 0
v -0.1 -0.1 -0.1
v -0.1 0 0
v -0.1 0 -0.2
v -0.1 0.1 0
v -0.1 0.1 -0.2
v -0.1 0.2 -0.2
v -0.1 0.2 -0.4
v -0.1 0.4 -0.2
v -0.1 0.4 -0.4
v 0 -0.5 0.2
v 0 -0.5 0.1
v 0 -0.3 0.2
v 0 -0.3 0.1
v 0 -0.1 0
v 0 -0.1 -0.1
v 0 -0.1 -0.2
v 0 0 0
v 0 0 -0.2
v 0.1 0 0.3
v 0.1 0 0.1
v 0.1 0.1 0.3
v 0.1 0.1 0.1
v -0.1 0 -0.2
v -0.1 0 -0.4
v -0.1 0.1 -0.2
v -0.1 0.1 -0.4
v 0.1 -0.5 0.2
v 0.1 -0.5 0.1
v 0.1 -0.5 -0.1
v 0.1 -0.3 0.2
v 0.1 -0.3 0.1
v 0.1 -0.2 0.1
v 0.1 -0.2 -0.1
v 0.1 0.2 0.3
v 0.1 0.2 0.1
v 0.1 0.4 0.1
v 0.1 0.4 -0.2
v 0.1 0.5 0.3
v 0.1 0.5 -0.2
v 0.2 -0.2 0.1
v 0.2 -0.2 -0.1
v 0.2 -0.1 -0.1
v 0.2 -0.1 -0.2
v 0.2 0 0.1
v 0.2 0.1 0.1
v 0.2 0.1 -0.1
v 0.2 0.1 -0.2
v 0.3 0 0.3
v 0.3 0 0.1
v 0.3 0.1 0.1
v 0.3 0.2 0.3
v 0.3 0.2 0.1
v 0.4 0.1 0.1
v 0.4 0.1 -0.4
v 0.4 0.4 0.1
v 0.4 0.4 -0.4
v -0.4 0.1 0.3
v -0.4 0.3 0.3
v -0.2 0.3 0.3
v -0.2 0.5 0.3
v 0.1 0 0.3
v 0.1 0.1 0.3
v 0.1 0.2 0.3
v 0.1 0.5 0.3
v 0.3 0 0.3
v 0.3 0.2 0.3
v 0 -0.5 0.2
v 0 -0.3 0.2
v 0.1 -0.5 0.2
v 0.1 -0.3 0.2
v -0.4 0.3 0.1
v -0.4 0.5 0.1
v -0.2 -0.1 0.1
v -0.2 0.1 0.1
v -0.2 0.3 0.1
v -0.2 0.5 0.1
v -0.1 -0.5 0.1
v -0.1 -0.1 0.1
v -0.1 0 0.1
v -0.1 0.1 0.1
v 0 -0.5 0.1
v 0 -0.3 0.1
v 0 -0.1 0.1
v 0 0 0.1
v 0.1 -0.3 0.1
v 0.1 -0.2 0.1
v 0.1 -0.1 0.1
v 0.1 0 0.1
v 0.1 0.1 0.1
v 0.1 0.2 0.1
v 0.1 0.4 0.1
v 0.2 -0.2 0.1
v 0.2 0 0.1
v 0.3 0.1 0.1
v 0.3 0.2 0.1
v 0.4 0.1 0.1
v 0.4 0.4 0.1
v -0.3 0 -0.2
v -0.3 0.1 -0.2
v -0.1 0 -0.2
v -0.1 0.1 -0.2
v 0.2 0 0.1
v 0.2 0.1 0.1
v 0.3 0 0.1
v 0.3 0.1 0.1
v -0.2 -0.1 0
v -0.2 0.1 0
v -0.1 -0.1 0
v -0.1 0 0
v -0.1 0.1 0
v 0 -0.1 0
v 0 0 0
v -0.1 -0.5 -0.1
v -0.1 -0.1 -0.1
v 0 -0.1 -0.1
v 0.1 -0.5 -0.1
v 0.1 -0.2 -0.1
v 0.1 -0.1 -0.1
v 0.2 -0.2 -0.1
v 0.2 -0.1 -0.1
v -0.4 0.1 -0.2
v -0.4 0.5 -0.2
v -0.3 0.1 -0.2
v -0.3 0.2 -0.2
v -0.1 0 -0.2
v -0.1 0.1 -0.2
v -0.1 0.2 -0.2
v -0.1 0.4 -0.2
v 0 -0.1 -0.2
v 0 0 -0.2
v 0.1 0 -0.2
v 0.1 0.1 -0.2
v 0.1 0.4 -0.2
v 0.1 0.5 -0.2
v 0.2 -0.1 -0.2
v 0.2 0.1 -0.2
v -0.3 0 -0.4
v -0.3 0.2 -0.4
v -0.1 0 -0.4
v -0.1 0.1 -0.4
v -0.1 0.2 -0.4
v -0.1 0.4 -0.4
v 0.4 0.1 -0.4
v 0.4 0.4 -0.4
v 0 -0.5 0.2
v 0.1 -0.5 0.2
v -0.1 -0.5 0.1
v 0 -0.5 0.1
v 0.1 -0.5 0.1
v -0.1 -0.5 -0.1
v 0.1 -0.5 -0.1
v 0.1 -0.2 0.1
v 0.2 -0.2 0.1
v 0.1 -0.2 -0.1
v 0.2 -0.2 -0.1
v -0.2 -0.1 0.1
v -0.1 -0.1 0.1
v -0.2 -0.1 0
v -0.1 -0.1 0
v 0 -0.1 -0.1
v 0.1 -0.1 -0.1
v 0.2 -0.1 -0.1
v 0 -0.1 -0.2
v 0.2 -0.1 -0.2
v 0.1 0 0.3
v 0.3 0 0.3
v 0.1 0 0.1
v 0.2 0 0.1
v 0.3 0 0.1
v -0.1 0 0
v 0 0 0
v -0.3 0 -0.2
v -0.1 0 -0.2
v 0 0 -0.2
v -0.3 0 -0.4
v -0.1 0 -0.4
v -0.4 0.1 0.3
v 0.1 0.1 0.3
v -0.2 0.1 0.1
v -0.1 0.1 0.1
v 0.1 0.1 0.1
v 0.2 0.1 0.1
v 0.3 0.1 0.1
v 0.4 0.1 0.1
v -0.2 0.1 0
v -0.1 0.1 0
v 0.2 0.1 -0.1
v -0.4 0.1 -0.2
v -0.3 0.1 -0.2
v -0.1 0.1 -0.2
v 0.1 0.1 -0.2
v 0.2 0.1 -0.2
v -0.1 0.1 -0.4
v 0.4 0.1 -0.4
v 0 -0.3 0.2
v 0.1 -0.3 0.2
v 0 -0.3 0.1
v 0.1 -0.3 0.1
v -0.1 -0.1 0
v 0 -0.1 0
v -0.1 -0.1 -0.1
v 0 -0.1 -0.1
v 0.1 0.2 0.3
v 0.3 0.2 0.3
v 0.1 0.2 0.1
v 0.3 0.2 0.1
v -0.3 0.2 -0.2
v -0.1 0.2 -0.2
v -0.3 0.2 -0.4
v -0.1 0.2 -0.4
v -0.4 0.3 0.3
v -0.2 0.3 0.3
v -0.4 0.3 0.1
v -0.2 0.3 0.1
v 0.1 0.4 0.1
v 0.4 0.4 0.1
v -0.1 0.4 -0.2
v 0.1 0.4 -0.2
v -0.1 0.4 -0.4
v 0.4 0.4 -0.4
v -0.2 0.5 0.3
v 0.1 0.5 0.3
v -0.4 0.5 0.1
v -0.2 0.5 0.1
v -0.4 0.5 -0.2
v 0.1 0.5 -0.2

# faces
f 3/2/1 2/2/1 1/2/1
f 4/2/1 2/2/1 3/2/1
f 5/2/1 2/2/1 4/2/1
f 6/2/1 2/2/1 5/2/1
f 9/2/1 8/2/1 7/2/1
f 10/2/1 8/2/1 9/2/1
f 11/2/1 8/2/1 10/2/1
f 14/1/1 13/1/1 12/1/1
f 15/1/1 13/1/1 14/1/1
f 18/2/1 17/2/1 16/2/1
f 19/2/1 17/2/1 18/2/1
f 22/1/1 21/1/1 20/1/1
f 23/1/1 21/1/1 22/1/1
f 24/1/1 21/1/1 23/1/1
f 27/2/1 26/2/1 25/2/1
f 28/2/1 26/2/1 27/2/1
f 31/2/1 30/2/1 29/2/1
f 32/2/1 30/2/1 31/2/1
f 35/2/1 34/2/1 33/2/1
f 36/2/1 34/2/1 35/2/1
f 40/1/1 38/1/1 37/1/1
f 40/1/1 39/1/1 38/1/1
f 41/1/1 39/1/1 40/1/1
f 44/2/1 43/2/1 42/2/1
f 45/2/1 43/2/1 44/2/1
f 46/2/2 47/2/2 48/2/2
f 48/2/2 47/2/2 49/2/2
f 50/2/2 51/2/2 53/2/2
f 51/1/2 52/1/2 54/1/2
f 53/2/2 51/2/2 54/2/2
f 54/1/2 52/1/2 55/1/2
f 55/1/2 52/1/2 56/1/2
f 57/2/2 58/2/2 59/2/2
f 57/2/2 59/2/2 61/2/2
f 59/2/2 60/2/2 61/2/2
f 61/2/2 60/2/2 62/2/2
f 63/2/2 64/2/2 65/2/2
f 63/2/2 65/2/2 67/2/2
f 67/2/2 65/2/2 68/2/2
f 65/1/2 66/1/2 69/1/2
f 68/2/2 65/2/2 69/2/2
f 69/1/2 66/1/2 70/1/2
f 71/2/2 72/2/2 73/2/2
f 71/2/2 73/2/2 74/2/2
f 74/2/2 73/2/2 75/2/2
f 76/2/2 77/2/2 78/2/2
f 78/2/2 77/2/2 79/2/2
f 82/2/3 81/2/3 80/2/3
f 85/2/3 82/2/3 80/2/3
f 85/2/3 83/2/3 82/2/3
f 86/2/3 83/2/3 85/2/3
f 87/2/3 83/2/3 86/2/3
f 88/2/3 85/2/3 84/2/3
f 88/2/3 86/2/3 85/2/3
f 89/2/3 86/2/3 88/2/3
f 92/2/3 91/2/3 90/2/3
f 93/2/3 91/2/3 92/2/3
f 98/2/3 95/2/3 94/2/3
f 99/2/3 95/2/3 98/2/3
f 101/1/3 97/1/3 96/1/3
f 102/1/3 97/1/3 101/1/3
f 103/1/3 97/1/3 102/1/3
f 104/1/3 101/1/3 100/1/3
f 104/1/3 102/1/3 101/1/3
f 105/1/3 102/1/3 104/1/3
f 106/1/3 102/1/3 105/1/3
f 107/2/3 103/2/3 102/2/3
f 107/1/3 102/1/3 106/1/3
f 108/1/3 106/1/3 105/1/3
f 109/1/3 106/1/3 108/1/3
f 110/2/3 107/2/3 106/2/3
f 110/1/3 106/1/3 109/1/3
f 111/2/3 103/2/3 107/2/3
f 111/2/3 107/2/3 110/2/3
f 112/2/3 103/2/3 111/2/3
f 115/2/3 110/2/3 109/2/3
f 115/2/3 111/2/3 110/2/3
f 116/2/3 111/2/3 115/2/3
f 118/2/3 114/2/3 113/2/3
f 119/2/3 118/2/3 117/2/3
f 120/2/3 114/2/3 118/2/3
f 120/2/3 118/2/3 119/2/3
f 123/2/3 122/2/3 121/2/3
f 124/2/3 122/2/3 123/2/3
f 125/2/4 126/2/4 127/2/4
f 127/2/4 126/2/4 128/2/4
f 129/1/4 130/1/4 131/1/4
f 131/1/4 130/1/4 132/1/4
f 132/1/4 130/1/4 133/1/4
f 131/1/4 132/1/4 134/1/4
f 134/1/4 132/1/4 135/1/4
f 136/1/4 137/1/4 138/1/4
f 136/1/4 138/1/4 139/1/4
f 139/1/4 138/1/4 140/1/4
f 140/1/4 138/1/4 141/1/4
f 140/2/4 141/2/4 142/2/4
f 142/2/4 141/2/4 143/2/4
f 144/2/4 145/2/4 146/2/4
f 146/2/4 145/2/4 147/2/4
f 147/2/4 145/2/4 150/2/4
f 150/2/4 145/2/4 151/2/4
f 148/2/4 149/2/4 153/2/4
f 153/2/4 149/2/4 154/2/4
f 152/1/4 153/1/4 154/1/4
f 154/2/4 149/2/4 155/2/4
f 151/2/4 145/2/4 156/2/4
f 156/2/4 145/2/4 157/2/4
f 154/1/4 155/1/4 158/1/4
f 152/1/4 154/1/4 158/1/4
f 158/1/4 155/1/4 159/1/4
f 160/2/4 161/2/4 162/2/4
f 162/2/4 161/2/4 163/2/4
f 163/2/4 161/2/4 164/2/4
f 164/2/4 165/2/4 166/2/4
f 163/2/4 164/2/4 166/2/4
f 166/2/4 165/2/4 167/2/4
f 171/2/5 169/2/5 168/2/5
f 172/2/5 169/2/5 171/2/5
f 173/1/5 171/1/5 170/1/5
f 173/1/5 172/1/5 171/1/5
f 174/1/5 172/1/5 173/1/5
f 177/2/5 176/2/5 175/2/5
f 178/2/5 176/2/5 177/2/5
f 181/1/5 180/1/5 179/1/5
f 182/1/5 180/1/5 181/1/5
f 186/1/5 184/1/5 183/1/5
f 186/1/5 185/1/5 184/1/5
f 187/1/5 185/1/5 186/1/5
f 190/2/5 189/2/5 188/2/5
f 191/2/5 189/2/5 190/2/5
f 192/2/5 189/2/5 191/2/5
f 196/2/5 194/2/5 193/2/5
f 197/2/5 194/2/5 196/2/5
f 198/2/5 196/2/5 195/2/5
f 199/2/5 196/2/5 198/2/5
f 202/2/5 201/2/5 200/2/5
f 203/2/5 201/2/5 202/2/5
f 204/2/5 201/2/5 203/2/5
f 208/2/5 202/2/5 200/2/5
f 210/2/5 207/2/5 206/2/5
f 210/2/5 206/2/5 205/2/5
f 211/2/5 209/2/5 208/2/5
f 211/2/5 208/2/5 200/2/5
f 212/2/5 209/2/5 211/2/5
f 213/2/5 209/2/5 212/2/5
f 215/2/5 207/2/5 210/2/5
f 216/2/5 214/2/5 213/2/5
f 216/2/5 215/2/5 214/2/5
f 217/2/5 207/2/5 215/2/5
f 217/2/5 215/2/5 216/2/5
f 218/2/6 219/2/6 220/2/6
f 220/2/6 219/2/6 221/2/6
f 222/1/6 223/1/6 224/1/6
f 224/1/6 223/1/6 225/1/6
f 226/2/6 227/2/6 228/2/6
f 228/2/6 227/2/6 229/2/6
f 230/2/6 231/2/6 232/2/6
f 232/2/6 231/2/6 233/2/6
f 234/2/6 235/2/6 236/2/6
f 236/2/6 235/2/6 237/2/6
f 238/2/6 239/2/6 241/2/6
f 240/2/6 241/2/6 242/2/6
f 241/2/6 239/2/6 243/2/6
f 242/2/6 241/2/6 243/2/6
f 244/2/6 245/2/6 247/2/6
f 246/2/6 247/2/6 248/2/6
f 247/2/6 245/2/6 249/2/6
f 248/2/6 247/2/6 249/2/6
