# MagicaVoxel @ Ephtracy

# group
o 

# material
mtllib Tree_02.mtl
usemtl palette

# normals
vn -1 0 0
vn 1 0 0
vn 0 0 1
vn 0 0 -1
vn 0 -1 0
vn 0 1 0

# texcoords
vt 0.869141 0.5
vt 0.896484 0.5

# verts
v -0.4 -0.5 0
v -0.4 -0.5 -0.1
v -0.4 -0.5 -0.2
v -0.4 -0.4 0
v -0.4 -0.4 -0.1
v -0.4 -0.4 -0.2
v -0.2 -0.5 0.3
v -0.2 -0.5 0.2
v -0.2 -0.5 0.1
v -0.2 -0.5 0
v -0.2 -0.4 0.3
v -0.2 -0.4 0.2
v -0.2 -0.4 0.1
v -0.2 -0.4 0
v -0.2 -0.1 0.1
v -0.2 -0.1 -0.1
v -0.2 0.5 0.1
v -0.2 0.5 -0.1
v -0.1 -0.5 0.2
v -0.1 -0.5 0.1
v -0.1 -0.5 0
v -0.1 -0.5 -0.1
v -0.1 -0.5 -0.2
v -0.1 -0.5 -0.3
v -0.1 -0.4 0.2
v -0.1 -0.4 0.1
v -0.1 -0.4 0
v -0.1 -0.4 -0.2
v -0.1 -0.4 -0.3
v -0.1 -0.1 0.2
v -0.1 -0.1 0.1
v -0.1 -0.1 -0.1
v -0.1 -0.1 -0.2
v -0.1 0.5 0.2
v -0.1 0.5 0.1
v -0.1 0.5 -0.1
v -0.1 0.5 -0.2
v 0 -0.5 -0.1
v 0 -0.5 -0.2
v 0 -0.4 -0.1
v 0 -0.4 -0.2
v 0.1 -0.5 -0.2
v 0.1 -0.5 -0.3
v 0.1 -0.4 -0.2
v 0.1 -0.4 -0.3
v 0.2 -0.5 0.3
v 0.2 -0.5 0.2
v 0.2 -0.5 0.1
v 0.2 -0.4 0.3
v 0.2 -0.4 0.2
v 0.2 -0.4 0.1
v 0.3 -0.5 0.1
v 0.3 -0.5 0
v 0.3 -0.4 0.1
v 0.3 -0.4 0
v -0.2 -0.5 0
v -0.2 -0.5 -0.1
v -0.2 -0.5 -0.2
v -0.2 -0.4 0
v -0.2 -0.4 -0.1
v -0.2 -0.4 -0.2
v -0.1 -0.5 0.3
v -0.1 -0.5 0.2
v -0.1 -0.4 0.3
v -0.1 -0.4 0.2
v 0 -0.5 0.2
v 0 -0.5 0.1
v 0 -0.5 -0.2
v 0 -0.5 -0.3
v 0 -0.4 0.2
v 0 -0.4 0.1
v 0 -0.4 -0.2
v 0 -0.4 -0.3
v 0.1 -0.5 0
v 0.1 -0.5 -0.2
v 0.1 -0.4 0.1
v 0.1 -0.4 0
v 0.1 -0.4 -0.1
v 0.1 -0.4 -0.2
v 0.1 -0.1 0.2
v 0.1 -0.1 0.1
v 0.1 -0.1 -0.1
v 0.1 -0.1 -0.2
v 0.1 0.5 0.2
v 0.1 0.5 0.1
v 0.1 0.5 -0.1
v 0.1 0.5 -0.2
v 0.2 -0.5 0.1
v 0.2 -0.5 0
v 0.2 -0.4 0.1
v 0.2 -0.4 0
v 0.2 -0.1 0.1
v 0.2 -0.1 -0.1
v 0.2 0.5 0.1
v 0.2 0.5 -0.1
v 0.3 -0.5 0.3
v 0.3 -0.5 0.2
v 0.3 -0.5 0.1
v 0.3 -0.5 -0.2
v 0.3 -0.5 -0.3
v 0.3 -0.4 0.3
v 0.3 -0.4 0.2
v 0.3 -0.4 0.1
v 0.3 -0.4 -0.2
v 0.3 -0.4 -0.3
v 0.4 -0.5 0.1
v 0.4 -0.5 0
v 0.4 -0.4 0.1
v 0.4 -0.4 0
v -0.2 -0.5 0.3
v -0.2 -0.4 0.3
v -0.1 -0.5 0.3
v -0.1 -0.4 0.3
v 0.2 -0.5 0.3
v 0.2 -0.4 0.3
v 0.3 -0.5 0.3
v 0.3 -0.4 0.3
v -0.1 -0.5 0.2
v -0.1 -0.4 0.2
v -0.1 -0.1 0.2
v -0.1 0.5 0.2
v 0 -0.5 0.2
v 0 -0.4 0.2
v 0.1 -0.1 0.2
v 0.1 0.5 0.2
v -0.2 -0.5 0.1
v -0.2 -0.4 0.1
v -0.2 -0.1 0.1
v -0.2 0.5 0.1
v -0.1 -0.5 0.1
v -0.1 -0.4 0.1
v -0.1 -0.1 0.1
v -0.1 0.5 0.1
v 0 -0.5 0.1
v 0 -0.4 0.1
v 0.1 -0.4 0.1
v 0.1 -0.1 0.1
v 0.1 0.5 0.1
v 0.2 -0.5 0.1
v 0.2 -0.4 0.1
v 0.2 -0.1 0.1
v 0.2 0.5 0.1
v 0.3 -0.5 0.1
v 0.3 -0.4 0.1
v 0.4 -0.5 0.1
v 0.4 -0.4 0.1
v -0.4 -0.5 0
v -0.4 -0.4 0
v -0.2 -0.5 0
v -0.2 -0.4 0
v -0.1 -0.5 -0.2
v -0.1 -0.4 -0.2
v 0 -0.5 -0.2
v 0 -0.4 -0.2
v 0.1 -0.5 -0.2
v 0.1 -0.4 -0.2
v 0.3 -0.5 -0.2
v 0.3 -0.4 -0.2
v -0.2 -0.5 0.2
v -0.2 -0.4 0.2
v -0.1 -0.5 0.2
v -0.1 -0.4 0.2
v 0.2 -0.5 0.1
v 0.2 -0.4 0.1
v 0.3 -0.5 0.1
v 0.3 -0.4 0.1
v -0.2 -0.5 0
v -0.2 -0.4 0
v -0.1 -0.5 0
v -0.1 -0.4 0
v 0.1 -0.5 0
v 0.1 -0.4 0
v 0.2 -0.5 0
v 0.2 -0.4 0
v 0.3 -0.5 0
v 0.3 -0.4 0
v 0.4 -0.5 0
v 0.4 -0.4 0
v -0.2 -0.1 -0.1
v -0.2 0.5 -0.1
v -0.1 -0.5 -0.1
v -0.1 -0.1 -0.1
v -0.1 0.5 -0.1
v 0 -0.5 -0.1
v 0 -0.4 -0.1
v 0.1 -0.4 -0.1
v 0.1 -0.1 -0.1
v 0.1 0.5 -0.1
v 0.2 -0.1 -0.1
v 0.2 0.5 -0.1
v -0.4 -0.5 -0.2
v -0.4 -0.4 -0.2
v -0.2 -0.5 -0.2
v -0.2 -0.4 -0.2
v -0.1 -0.1 -0.2
v -0.1 0.5 -0.2
v 0 -0.5 -0.2
v 0 -0.4 -0.2
v 0.1 -0.5 -0.2
v 0.1 -0.4 -0.2
v 0.1 -0.1 -0.2
v 0.1 0.5 -0.2
v -0.1 -0.5 -0.3
v -0.1 -0.4 -0.3
v 0 -0.5 -0.3
v 0 -0.4 -0.3
v 0.1 -0.5 -0.3
v 0.1 -0.4 -0.3
v 0.3 -0.5 -0.3
v 0.3 -0.4 -0.3
v -0.2 -0.5 0.3
v -0.1 -0.5 0.3
v 0.2 -0.5 0.3
v 0.3 -0.5 0.3
v -0.2 -0.5 0.2
v -0.1 -0.5 0.2
v 0 -0.5 0.2
v 0.2 -0.5 0.2
v 0.3 -0.5 0.2
v -0.2 -0.5 0.1
v -0.1 -0.5 0.1
v 0 -0.5 0.1
v 0.2 -0.5 0.1
v 0.3 -0.5 0.1
v 0.4 -0.5 0.1
v -0.4 -0.5 0
v -0.2 -0.5 0
v -0.1 -0.5 0
v 0.1 -0.5 0
v 0.2 -0.5 0
v 0.3 -0.5 0
v 0.4 -0.5 0
v -0.4 -0.5 -0.1
v -0.2 -0.5 -0.1
v -0.1 -0.5 -0.1
v 0 -0.5 -0.1
v -0.4 -0.5 -0.2
v -0.2 -0.5 -0.2
v -0.1 -0.5 -0.2
v 0 -0.5 -0.2
v 0.1 -0.5 -0.2
v 0.3 -0.5 -0.2
v -0.1 -0.5 -0.3
v 0 -0.5 -0.3
v 0.1 -0.5 -0.3
v 0.3 -0.5 -0.3
v -0.1 -0.1 0.2
v 0.1 -0.1 0.2
v -0.2 -0.1 0.1
v -0.1 -0.1 0.1
v 0.1 -0.1 0.1
v 0.2 -0.1 0.1
v -0.2 -0.1 -0.1
v -0.1 -0.1 -0.1
v 0.1 -0.1 -0.1
v 0.2 -0.1 -0.1
v -0.1 -0.1 -0.2
v 0.1 -0.1 -0.2
v -0.2 -0.4 0.3
v -0.1 -0.4 0.3
v 0.2 -0.4 0.3
v 0.3 -0.4 0.3
v -0.2 -0.4 0.2
v -0.1 -0.4 0.2
v 0 -0.4 0.2
v 0.2 -0.4 0.2
v 0.3 -0.4 0.2
v -0.2 -0.4 0.1
v -0.1 -0.4 0.1
v 0 -0.4 0.1
v 0.1 -0.4 0.1
v 0.2 -0.4 0.1
v 0.3 -0.4 0.1
v 0.4 -0.4 0.1
v -0.4 -0.4 0
v -0.2 -0.4 0
v -0.1 -0.4 0
v 0.1 -0.4 0
v 0.2 -0.4 0
v 0.3 -0.4 0
v 0.4 -0.4 0
v -0.4 -0.4 -0.1
v -0.2 -0.4 -0.1
v 0 -0.4 -0.1
v 0.1 -0.4 -0.1
v -0.4 -0.4 -0.2
v -0.2 -0.4 -0.2
v -0.1 -0.4 -0.2
v 0 -0.4 -0.2
v 0.1 -0.4 -0.2
v 0.3 -0.4 -0.2
v -0.1 -0.4 -0.3
v 0 -0.4 -0.3
v 0.1 -0.4 -0.3
v 0.3 -0.4 -0.3
v -0.1 0.5 0.2
v 0.1 0.5 0.2
v -0.2 0.5 0.1
v -0.1 0.5 0.1
v 0.1 0.5 0.1
v 0.2 0.5 0.1
v -0.2 0.5 -0.1
v -0.1 0.5 -0.1
v 0.1 0.5 -0.1
v 0.2 0.5 -0.1
v -0.1 0.5 -0.2
v 0.1 0.5 -0.2

# faces
f 4/1/1 2/1/1 1/1/1
f 5/2/1 3/2/1 2/2/1
f 5/1/1 2/1/1 4/1/1
f 6/2/1 3/2/1 5/2/1
f 11/1/1 8/1/1 7/1/1
f 12/1/1 8/1/1 11/1/1
f 13/1/1 10/1/1 9/1/1
f 14/1/1 10/1/1 13/1/1
f 17/2/1 16/2/1 15/2/1
f 18/2/1 16/2/1 17/2/1
f 25/1/1 20/1/1 19/1/1
f 26/1/1 20/1/1 25/1/1
f 27/1/1 22/1/1 21/1/1
f 28/1/1 24/1/1 23/1/1
f 29/1/1 24/1/1 28/1/1
f 31/1/1 27/1/1 26/1/1
f 32/1/1 22/1/1 27/1/1
f 32/1/1 27/1/1 31/1/1
f 34/2/1 31/2/1 30/2/1
f 35/2/1 31/2/1 34/2/1
f 36/2/1 33/2/1 32/2/1
f 37/2/1 33/2/1 36/2/1
f 40/1/1 39/1/1 38/1/1
f 41/1/1 39/1/1 40/1/1
f 44/1/1 43/1/1 42/1/1
f 45/1/1 43/1/1 44/1/1
f 49/2/1 47/2/1 46/2/1
f 50/1/1 48/1/1 47/1/1
f 50/2/1 47/2/1 49/2/1
f 51/1/1 48/1/1 50/1/1
f 54/1/1 53/1/1 52/1/1
f 55/1/1 53/1/1 54/1/1
f 56/1/2 57/1/2 59/1/2
f 57/2/2 58/2/2 60/2/2
f 59/1/2 57/1/2 60/1/2
f 60/2/2 58/2/2 61/2/2
f 62/1/2 63/1/2 64/1/2
f 64/1/2 63/1/2 65/1/2
f 66/1/2 67/1/2 70/1/2
f 70/1/2 67/1/2 71/1/2
f 68/1/2 69/1/2 72/1/2
f 72/1/2 69/1/2 73/1/2
f 74/1/2 75/1/2 77/1/2
f 77/1/2 75/1/2 78/1/2
f 78/1/2 75/1/2 79/1/2
f 76/1/2 77/1/2 81/1/2
f 77/1/2 78/1/2 81/1/2
f 81/1/2 78/1/2 82/1/2
f 80/2/2 81/2/2 84/2/2
f 84/2/2 81/2/2 85/2/2
f 82/2/2 83/2/2 86/2/2
f 86/2/2 83/2/2 87/2/2
f 88/1/2 89/1/2 90/1/2
f 90/1/2 89/1/2 91/1/2
f 92/2/2 93/2/2 94/2/2
f 94/2/2 93/2/2 95/2/2
f 96/2/2 97/2/2 101/2/2
f 97/1/2 98/1/2 102/1/2
f 101/2/2 97/2/2 102/2/2
f 102/1/2 98/1/2 103/1/2
f 99/1/2 100/1/2 104/1/2
f 104/1/2 100/1/2 105/1/2
f 106/1/2 107/1/2 108/1/2
f 108/1/2 107/1/2 109/1/2
f 112/1/3 111/1/3 110/1/3
f 113/1/3 111/1/3 112/1/3
f 116/2/3 115/2/3 114/2/3
f 117/2/3 115/2/3 116/2/3
f 122/1/3 119/1/3 118/1/3
f 123/1/3 119/1/3 122/1/3
f 124/2/3 121/2/3 120/2/3
f 125/2/3 121/2/3 124/2/3
f 130/1/3 127/1/3 126/1/3
f 131/1/3 127/1/3 130/1/3
f 132/2/3 129/2/3 128/2/3
f 133/2/3 129/2/3 132/2/3
f 135/1/3 132/1/3 131/1/3
f 136/1/3 132/1/3 135/1/3
f 136/1/3 135/1/3 134/1/3
f 137/1/3 132/1/3 136/1/3
f 139/1/3 136/1/3 134/1/3
f 140/1/3 136/1/3 139/1/3
f 141/2/3 138/2/3 137/2/3
f 142/2/3 138/2/3 141/2/3
f 145/1/3 144/1/3 143/1/3
f 146/1/3 144/1/3 145/1/3
f 149/1/3 148/1/3 147/1/3
f 150/1/3 148/1/3 149/1/3
f 153/1/3 152/1/3 151/1/3
f 154/1/3 152/1/3 153/1/3
f 157/1/3 156/1/3 155/1/3
f 158/1/3 156/1/3 157/1/3
f 159/1/4 160/1/4 161/1/4
f 161/1/4 160/1/4 162/1/4
f 163/1/4 164/1/4 165/1/4
f 165/1/4 164/1/4 166/1/4
f 167/1/4 168/1/4 169/1/4
f 169/1/4 168/1/4 170/1/4
f 171/1/4 172/1/4 173/1/4
f 173/1/4 172/1/4 174/1/4
f 175/1/4 176/1/4 177/1/4
f 177/1/4 176/1/4 178/1/4
f 179/2/4 180/2/4 182/2/4
f 182/2/4 180/2/4 183/2/4
f 181/1/4 182/1/4 184/1/4
f 184/1/4 182/1/4 185/1/4
f 185/1/4 182/1/4 186/1/4
f 186/1/4 182/1/4 187/1/4
f 187/2/4 188/2/4 189/2/4
f 189/2/4 188/2/4 190/2/4
f 191/2/4 192/2/4 193/2/4
f 193/2/4 192/2/4 194/2/4
f 197/1/4 198/1/4 199/1/4
f 199/1/4 198/1/4 200/1/4
f 195/2/4 196/2/4 201/2/4
f 201/2/4 196/2/4 202/2/4
f 203/1/4 204/1/4 205/1/4
f 205/1/4 204/1/4 206/1/4
f 207/1/4 208/1/4 209/1/4
f 209/1/4 208/1/4 210/1/4
f 215/1/5 212/1/5 211/1/5
f 216/1/5 212/1/5 215/1/5
f 218/2/5 214/2/5 213/2/5
f 219/2/5 214/2/5 218/2/5
f 221/1/5 217/1/5 216/1/5
f 222/1/5 217/1/5 221/1/5
f 223/1/5 219/1/5 218/1/5
f 224/1/5 219/1/5 223/1/5
f 227/1/5 222/1/5 221/1/5
f 227/1/5 223/1/5 222/1/5
f 227/1/5 221/1/5 220/1/5
f 228/1/5 223/1/5 227/1/5
f 229/1/5 223/1/5 228/1/5
f 230/1/5 223/1/5 229/1/5
f 231/1/5 225/1/5 224/1/5
f 232/1/5 225/1/5 231/1/5
f 233/1/5 227/1/5 226/1/5
f 234/1/5 227/1/5 233/1/5
f 235/1/5 229/1/5 228/1/5
f 236/1/5 229/1/5 235/1/5
f 237/2/5 234/2/5 233/2/5
f 238/2/5 234/2/5 237/2/5
f 240/1/5 229/1/5 236/1/5
f 241/1/5 229/1/5 240/1/5
f 243/1/5 240/1/5 239/1/5
f 244/1/5 240/1/5 243/1/5
f 245/1/5 242/1/5 241/1/5
f 246/1/5 242/1/5 245/1/5
f 250/2/5 248/2/5 247/2/5
f 251/2/5 248/2/5 250/2/5
f 253/2/5 250/2/5 249/2/5
f 254/2/5 250/2/5 253/2/5
f 255/2/5 252/2/5 251/2/5
f 256/2/5 252/2/5 255/2/5
f 257/2/5 255/2/5 254/2/5
f 258/2/5 255/2/5 257/2/5
f 259/1/6 260/1/6 263/1/6
f 263/1/6 260/1/6 264/1/6
f 261/2/6 262/2/6 266/2/6
f 266/2/6 262/2/6 267/2/6
f 264/1/6 265/1/6 269/1/6
f 269/1/6 265/1/6 270/1/6
f 266/1/6 267/1/6 272/1/6
f 272/1/6 267/1/6 273/1/6
f 268/1/6 269/1/6 276/1/6
f 276/1/6 269/1/6 277/1/6
f 271/1/6 272/1/6 278/1/6
f 278/1/6 272/1/6 279/1/6
f 273/1/6 274/1/6 280/1/6
f 280/1/6 274/1/6 281/1/6
f 275/1/6 276/1/6 282/1/6
f 282/1/6 276/1/6 283/1/6
f 282/2/6 283/2/6 286/2/6
f 286/2/6 283/2/6 287/2/6
f 284/1/6 285/1/6 289/1/6
f 289/1/6 285/1/6 290/1/6
f 288/1/6 289/1/6 292/1/6
f 292/1/6 289/1/6 293/1/6
f 290/1/6 291/1/6 294/1/6
f 294/1/6 291/1/6 295/1/6
f 296/2/6 297/2/6 299/2/6
f 299/2/6 297/2/6 300/2/6
f 298/2/6 299/2/6 302/2/6
f 300/2/6 301/2/6 302/2/6
f 299/2/6 300/2/6 302/2/6
f 302/2/6 301/2/6 303/2/6
f 303/2/6 301/2/6 304/2/6
f 304/2/6 301/2/6 305/2/6
f 303/2/6 304/2/6 306/2/6
f 306/2/6 304/2/6 307/2/6
