# MagicaVoxel @ Ephtracy

# group
o 

# material
mtllib Fram_01.mtl
usemtl palette

# normals
vn -1 0 0
vn 1 0 0
vn 0 0 1
vn 0 0 -1
vn 0 -1 0
vn 0 1 0

# texcoords
vt 0.0839844 0.5
vt 0.310547 0.5
vt 0.369141 0.5
vt 0.455078 0.5
vt 0.498047 0.5
vt 0.533203 0.5
vt 0.560547 0.5
vt 0.755859 0.5
vt 0.912109 0.5
vt 0.982422 0.5

# verts
v -0.4 -0.5 0.4
v -0.4 -0.5 -0.4
v -0.4 -0.4 0.3
v -0.4 -0.4 -0.4
v -0.4 -0.3 0.4
v -0.4 -0.3 0.3
v -0.4 -0.2 0.4
v -0.4 -0.2 0.3
v -0.3 -0.4 0.2
v -0.3 -0.4 0.1
v -0.3 -0.4 0
v -0.3 -0.4 -0.1
v -0.3 -0.4 -0.2
v -0.3 -0.4 -0.3
v -0.3 -0.3 0.2
v -0.3 -0.3 0.1
v -0.3 -0.3 0
v -0.3 -0.3 -0.1
v -0.3 -0.3 -0.2
v -0.3 -0.3 -0.3
v -0.3 -0.2 0.2
v -0.3 -0.2 0.1
v -0.3 -0.2 0
v -0.3 -0.2 -0.1
v -0.3 -0.2 -0.2
v -0.3 -0.2 -0.3
v -0.1 -0.4 0.2
v -0.1 -0.4 0.1
v -0.1 -0.4 0
v -0.1 -0.4 -0.1
v -0.1 -0.4 -0.2
v -0.1 -0.4 -0.3
v -0.1 -0.3 0.2
v -0.1 -0.3 0.1
v -0.1 -0.3 0
v -0.1 -0.3 -0.1
v -0.1 -0.3 -0.2
v -0.1 -0.3 -0.3
v -0.1 -0.2 0.2
v -0.1 -0.2 0.1
v -0.1 -0.2 0
v -0.1 -0.2 -0.1
v -0.1 -0.2 -0.2
v -0.1 -0.2 -0.3
v 0 -0.4 -0.3
v 0 -0.4 -0.4
v 0 -0.3 -0.3
v 0 -0.3 -0.4
v 0 -0.2 -0.3
v 0 -0.2 -0.4
v 0 -0.1 -0.3
v 0 -0.1 -0.4
v 0.1 -0.4 0.2
v 0.1 -0.4 0.1
v 0.1 -0.4 0
v 0.1 -0.4 -0.1
v 0.1 -0.4 -0.2
v 0.1 -0.4 -0.3
v 0.1 -0.3 0.2
v 0.1 -0.3 0.1
v 0.1 -0.3 0
v 0.1 -0.3 -0.1
v 0.1 -0.3 -0.2
v 0.1 -0.3 -0.3
v 0.1 -0.2 0.2
v 0.1 -0.2 0.1
v 0.1 -0.2 0
v 0.1 -0.2 -0.1
v 0.1 -0.2 -0.2
v 0.1 -0.2 -0.3
v 0.3 -0.4 0.2
v 0.3 -0.4 0.1
v 0.3 -0.4 0
v 0.3 -0.4 -0.1
v 0.3 -0.4 -0.2
v 0.3 -0.4 -0.3
v 0.3 -0.3 0.2
v 0.3 -0.3 0.1
v 0.3 -0.3 0
v 0.3 -0.3 -0.1
v 0.3 -0.3 -0.2
v 0.3 -0.3 -0.3
v 0.3 -0.2 0.2
v 0.3 -0.2 0.1
v 0.3 -0.2 0
v 0.3 -0.2 -0.1
v 0.3 -0.2 -0.2
v 0.3 -0.2 -0.3
v -0.3 -0.4 0.4
v -0.3 -0.4 0.3
v -0.3 -0.3 0.4
v -0.3 -0.3 0.3
v -0.3 -0.2 0.4
v -0.3 -0.2 0.3
v -0.2 -0.4 0.2
v -0.2 -0.4 0.1
v -0.2 -0.4 0
v -0.2 -0.4 -0.1
v -0.2 -0.4 -0.2
v -0.2 -0.4 -0.3
v -0.2 -0.3 0.2
v -0.2 -0.3 0.1
v -0.2 -0.3 0
v -0.2 -0.3 -0.1
v -0.2 -0.3 -0.2
v -0.2 -0.3 -0.3
v -0.2 -0.2 0.2
v -0.2 -0.2 0.1
v -0.2 -0.2 0
v -0.2 -0.2 -0.1
v -0.2 -0.2 -0.2
v -0.2 -0.2 -0.3
v 0 -0.4 0.2
v 0 -0.4 0.1
v 0 -0.4 0
v 0 -0.4 -0.1
v 0 -0.4 -0.2
v 0 -0.4 -0.3
v 0 -0.3 0.2
v 0 -0.3 0.1
v 0 -0.3 0
v 0 -0.3 -0.1
v 0 -0.3 -0.2
v 0 -0.3 -0.3
v 0 -0.2 0.2
v 0 -0.2 0.1
v 0 -0.2 0
v 0 -0.2 -0.1
v 0 -0.2 -0.2
v 0 -0.2 -0.3
v 0.1 -0.4 -0.3
v 0.1 -0.4 -0.4
v 0.1 -0.3 -0.3
v 0.1 -0.3 -0.4
v 0.1 -0.2 -0.3
v 0.1 -0.2 -0.4
v 0.1 -0.1 -0.3
v 0.1 -0.1 -0.4
v 0.2 -0.4 0.2
v 0.2 -0.4 0.1
v 0.2 -0.4 0
v 0.2 -0.4 -0.1
v 0.2 -0.4 -0.2
v 0.2 -0.4 -0.3
v 0.2 -0.3 0.2
v 0.2 -0.3 0.1
v 0.2 -0.3 0
v 0.2 -0.3 -0.1
v 0.2 -0.3 -0.2
v 0.2 -0.3 -0.3
v 0.2 -0.2 0.2
v 0.2 -0.2 0.1
v 0.2 -0.2 0
v 0.2 -0.2 -0.1
v 0.2 -0.2 -0.2
v 0.2 -0.2 -0.3
v 0.4 -0.5 0.4
v 0.4 -0.5 0.3
v 0.4 -0.5 0.2
v 0.4 -0.5 0.1
v 0.4 -0.5 0
v 0.4 -0.5 -0.1
v 0.4 -0.5 -0.2
v 0.4 -0.5 -0.3
v 0.4 -0.5 -0.4
v 0.4 -0.4 0.4
v 0.4 -0.4 0.3
v 0.4 -0.4 0.2
v 0.4 -0.4 0.1
v 0.4 -0.4 0
v 0.4 -0.4 -0.1
v 0.4 -0.4 -0.2
v 0.4 -0.4 -0.3
v 0.4 -0.4 -0.4
v 0.4 -0.3 0.2
v 0.4 -0.3 0.1
v 0.4 -0.3 0
v 0.4 -0.3 -0.1
v 0.4 -0.3 -0.2
v 0.4 -0.3 -0.3
v 0.4 -0.2 0.2
v 0.4 -0.2 0.1
v 0.4 -0.2 0
v 0.4 -0.2 -0.1
v 0.4 -0.2 -0.2
v 0.4 -0.2 -0.3
v -0.4 -0.5 0.4
v -0.4 -0.3 0.4
v -0.4 -0.2 0.4
v -0.3 -0.4 0.4
v -0.3 -0.3 0.4
v -0.3 -0.2 0.4
v 0.4 -0.5 0.4
v 0.4 -0.4 0.4
v -0.3 -0.4 0.2
v -0.3 -0.3 0.2
v -0.3 -0.2 0.2
v -0.2 -0.4 0.2
v -0.2 -0.3 0.2
v -0.2 -0.2 0.2
v -0.1 -0.4 0.2
v -0.1 -0.3 0.2
v -0.1 -0.2 0.2
v 0 -0.4 0.2
v 0 -0.3 0.2
v 0 -0.2 0.2
v 0.1 -0.4 0.2
v 0.1 -0.3 0.2
v 0.1 -0.2 0.2
v 0.2 -0.4 0.2
v 0.2 -0.3 0.2
v 0.2 -0.2 0.2
v 0.3 -0.4 0.2
v 0.3 -0.3 0.2
v 0.3 -0.2 0.2
v 0.4 -0.4 0.2
v 0.4 -0.3 0.2
v 0.4 -0.2 0.2
v -0.3 -0.4 0
v -0.3 -0.3 0
v -0.3 -0.2 0
v -0.2 -0.4 0
v -0.2 -0.3 0
v -0.2 -0.2 0
v -0.1 -0.4 0
v -0.1 -0.3 0
v -0.1 -0.2 0
v 0 -0.4 0
v 0 -0.3 0
v 0 -0.2 0
v 0.1 -0.4 0
v 0.1 -0.3 0
v 0.1 -0.2 0
v 0.2 -0.4 0
v 0.2 -0.3 0
v 0.2 -0.2 0
v 0.3 -0.4 0
v 0.3 -0.3 0
v 0.3 -0.2 0
v 0.4 -0.4 0
v 0.4 -0.3 0
v 0.4 -0.2 0
v -0.3 -0.4 -0.2
v -0.3 -0.3 -0.2
v -0.3 -0.2 -0.2
v -0.2 -0.4 -0.2
v -0.2 -0.3 -0.2
v -0.2 -0.2 -0.2
v -0.1 -0.4 -0.2
v -0.1 -0.3 -0.2
v -0.1 -0.2 -0.2
v 0 -0.4 -0.2
v 0 -0.3 -0.2
v 0 -0.2 -0.2
v 0.1 -0.4 -0.2
v 0.1 -0.3 -0.2
v 0.1 -0.2 -0.2
v 0.2 -0.4 -0.2
v 0.2 -0.3 -0.2
v 0.2 -0.2 -0.2
v 0.3 -0.4 -0.2
v 0.3 -0.3 -0.2
v 0.3 -0.2 -0.2
v 0.4 -0.4 -0.2
v 0.4 -0.3 -0.2
v 0.4 -0.2 -0.2
v 0 -0.4 -0.3
v 0 -0.3 -0.3
v 0 -0.2 -0.3
v 0 -0.1 -0.3
v 0.1 -0.4 -0.3
v 0.1 -0.3 -0.3
v 0.1 -0.2 -0.3
v 0.1 -0.1 -0.3
v -0.4 -0.4 0.3
v -0.4 -0.3 0.3
v -0.4 -0.2 0.3
v -0.3 -0.4 0.3
v -0.3 -0.3 0.3
v -0.3 -0.2 0.3
v -0.3 -0.4 0.1
v -0.3 -0.3 0.1
v -0.3 -0.2 0.1
v -0.2 -0.4 0.1
v -0.2 -0.3 0.1
v -0.2 -0.2 0.1
v -0.1 -0.4 0.1
v -0.1 -0.3 0.1
v -0.1 -0.2 0.1
v 0 -0.4 0.1
v 0 -0.3 0.1
v 0 -0.2 0.1
v 0.1 -0.4 0.1
v 0.1 -0.3 0.1
v 0.1 -0.2 0.1
v 0.2 -0.4 0.1
v 0.2 -0.3 0.1
v 0.2 -0.2 0.1
v 0.3 -0.4 0.1
v 0.3 -0.3 0.1
v 0.3 -0.2 0.1
v 0.4 -0.4 0.1
v 0.4 -0.3 0.1
v 0.4 -0.2 0.1
v -0.3 -0.4 -0.1
v -0.3 -0.3 -0.1
v -0.3 -0.2 -0.1
v -0.2 -0.4 -0.1
v -0.2 -0.3 -0.1
v -0.2 -0.2 -0.1
v -0.1 -0.4 -0.1
v -0.1 -0.3 -0.1
v -0.1 -0.2 -0.1
v 0 -0.4 -0.1
v 0 -0.3 -0.1
v 0 -0.2 -0.1
v 0.1 -0.4 -0.1
v 0.1 -0.3 -0.1
v 0.1 -0.2 -0.1
v 0.2 -0.4 -0.1
v 0.2 -0.3 -0.1
v 0.2 -0.2 -0.1
v 0.3 -0.4 -0.1
v 0.3 -0.3 -0.1
v 0.3 -0.2 -0.1
v 0.4 -0.4 -0.1
v 0.4 -0.3 -0.1
v 0.4 -0.2 -0.1
v -0.3 -0.4 -0.3
v -0.3 -0.3 -0.3
v -0.3 -0.2 -0.3
v -0.2 -0.4 -0.3
v -0.2 -0.3 -0.3
v -0.2 -0.2 -0.3
v -0.1 -0.4 -0.3
v -0.1 -0.3 -0.3
v -0.1 -0.2 -0.3
v 0 -0.4 -0.3
v 0 -0.3 -0.3
v 0 -0.2 -0.3
v 0.1 -0.4 -0.3
v 0.1 -0.3 -0.3
v 0.1 -0.2 -0.3
v 0.2 -0.4 -0.3
v 0.2 -0.3 -0.3
v 0.2 -0.2 -0.3
v 0.3 -0.4 -0.3
v 0.3 -0.3 -0.3
v 0.3 -0.2 -0.3
v 0.4 -0.4 -0.3
v 0.4 -0.3 -0.3
v 0.4 -0.2 -0.3
v -0.4 -0.5 -0.4
v -0.4 -0.4 -0.4
v -0.3 -0.5 -0.4
v -0.3 -0.4 -0.4
v 0 -0.4 -0.4
v 0 -0.3 -0.4
v 0 -0.2 -0.4
v 0 -0.1 -0.4
v 0.1 -0.4 -0.4
v 0.1 -0.3 -0.4
v 0.1 -0.2 -0.4
v 0.1 -0.1 -0.4
v 0.4 -0.5 -0.4
v 0.4 -0.4 -0.4
v -0.4 -0.5 0.4
v 0.4 -0.5 0.4
v -0.3 -0.5 0.3
v 0.4 -0.5 0.3
v -0.3 -0.5 0.2
v 0.4 -0.5 0.2
v -0.3 -0.5 0.1
v 0.4 -0.5 0.1
v -0.3 -0.5 0
v 0 -0.5 0
v 0.1 -0.5 0
v 0.4 -0.5 0
v -0.3 -0.5 -0.1
v 0 -0.5 -0.1
v 0.1 -0.5 -0.1
v 0.4 -0.5 -0.1
v -0.3 -0.5 -0.2
v 0.4 -0.5 -0.2
v -0.3 -0.5 -0.3
v 0.4 -0.5 -0.3
v -0.4 -0.5 -0.4
v -0.3 -0.5 -0.4
v 0.4 -0.5 -0.4
v -0.3 -0.4 0.4
v 0.4 -0.4 0.4
v -0.4 -0.4 0.3
v -0.3 -0.4 0.3
v 0.4 -0.4 0.3
v -0.3 -0.4 0.2
v -0.2 -0.4 0.2
v -0.1 -0.4 0.2
v 0 -0.4 0.2
v 0.1 -0.4 0.2
v 0.2 -0.4 0.2
v 0.3 -0.4 0.2
v 0.4 -0.4 0.2
v -0.3 -0.4 0.1
v -0.2 -0.4 0.1
v -0.1 -0.4 0.1
v 0 -0.4 0.1
v 0.1 -0.4 0.1
v 0.2 -0.4 0.1
v 0.3 -0.4 0.1
v 0.4 -0.4 0.1
v -0.3 -0.4 0
v -0.2 -0.4 0
v -0.1 -0.4 0
v 0 -0.4 0
v 0.1 -0.4 0
v 0.2 -0.4 0
v 0.3 -0.4 0
v 0.4 -0.4 0
v -0.3 -0.4 -0.1
v -0.2 -0.4 -0.1
v -0.1 -0.4 -0.1
v 0 -0.4 -0.1
v 0.1 -0.4 -0.1
v 0.2 -0.4 -0.1
v 0.3 -0.4 -0.1
v 0.4 -0.4 -0.1
v -0.3 -0.4 -0.2
v -0.2 -0.4 -0.2
v -0.1 -0.4 -0.2
v 0 -0.4 -0.2
v 0.1 -0.4 -0.2
v 0.2 -0.4 -0.2
v 0.3 -0.4 -0.2
v 0.4 -0.4 -0.2
v -0.3 -0.4 -0.3
v -0.2 -0.4 -0.3
v -0.1 -0.4 -0.3
v 0 -0.4 -0.3
v 0.1 -0.4 -0.3
v 0.2 -0.4 -0.3
v 0.3 -0.4 -0.3
v 0.4 -0.4 -0.3
v -0.4 -0.4 -0.4
v -0.3 -0.4 -0.4
v 0 -0.4 -0.4
v 0.1 -0.4 -0.4
v 0.4 -0.4 -0.4
v -0.4 -0.2 0.4
v -0.3 -0.2 0.4
v -0.4 -0.2 0.3
v -0.3 -0.2 0.3
v -0.3 -0.2 0.2
v -0.2 -0.2 0.2
v -0.1 -0.2 0.2
v 0 -0.2 0.2
v 0.1 -0.2 0.2
v 0.2 -0.2 0.2
v 0.3 -0.2 0.2
v 0.4 -0.2 0.2
v -0.3 -0.2 0.1
v -0.2 -0.2 0.1
v -0.1 -0.2 0.1
v 0 -0.2 0.1
v 0.1 -0.2 0.1
v 0.2 -0.2 0.1
v 0.3 -0.2 0.1
v 0.4 -0.2 0.1
v -0.3 -0.2 0
v -0.2 -0.2 0
v -0.1 -0.2 0
v 0 -0.2 0
v 0.1 -0.2 0
v 0.2 -0.2 0
v 0.3 -0.2 0
v 0.4 -0.2 0
v -0.3 -0.2 -0.1
v -0.2 -0.2 -0.1
v -0.1 -0.2 -0.1
v 0 -0.2 -0.1
v 0.1 -0.2 -0.1
v 0.2 -0.2 -0.1
v 0.3 -0.2 -0.1
v 0.4 -0.2 -0.1
v -0.3 -0.2 -0.2
v -0.2 -0.2 -0.2
v -0.1 -0.2 -0.2
v 0 -0.2 -0.2
v 0.1 -0.2 -0.2
v 0.2 -0.2 -0.2
v 0.3 -0.2 -0.2
v 0.4 -0.2 -0.2
v -0.3 -0.2 -0.3
v -0.2 -0.2 -0.3
v -0.1 -0.2 -0.3
v 0 -0.2 -0.3
v 0.1 -0.2 -0.3
v 0.2 -0.2 -0.3
v 0.3 -0.2 -0.3
v 0.4 -0.2 -0.3
v 0 -0.1 -0.3
v 0.1 -0.1 -0.3
v 0 -0.1 -0.4
v 0.1 -0.1 -0.4

# faces
f 3/2/1 2/2/1 1/2/1
f 4/2/1 2/2/1 3/2/1
f 5/2/1 3/2/1 1/2/1
f 6/2/1 3/2/1 5/2/1
f 7/3/1 6/3/1 5/3/1
f 8/3/1 6/3/1 7/3/1
f 15/5/1 10/5/1 9/5/1
f 16/5/1 10/5/1 15/5/1
f 17/5/1 12/5/1 11/5/1
f 18/5/1 12/5/1 17/5/1
f 19/5/1 14/5/1 13/5/1
f 20/5/1 14/5/1 19/5/1
f 21/7/1 16/7/1 15/7/1
f 22/7/1 16/7/1 21/7/1
f 23/7/1 18/7/1 17/7/1
f 24/7/1 18/7/1 23/7/1
f 25/7/1 20/7/1 19/7/1
f 26/7/1 20/7/1 25/7/1
f 33/5/1 28/5/1 27/5/1
f 34/5/1 28/5/1 33/5/1
f 35/5/1 30/5/1 29/5/1
f 36/5/1 30/5/1 35/5/1
f 37/5/1 32/5/1 31/5/1
f 38/5/1 32/5/1 37/5/1
f 39/7/1 34/7/1 33/7/1
f 40/7/1 34/7/1 39/7/1
f 41/7/1 36/7/1 35/7/1
f 42/7/1 36/7/1 41/7/1
f 43/7/1 38/7/1 37/7/1
f 44/7/1 38/7/1 43/7/1
f 47/10/1 46/10/1 45/10/1
f 48/10/1 46/10/1 47/10/1
f 49/9/1 48/9/1 47/9/1
f 50/9/1 48/9/1 49/9/1
f 51/1/1 50/1/1 49/1/1
f 52/1/1 50/1/1 51/1/1
f 59/5/1 54/5/1 53/5/1
f 60/5/1 54/5/1 59/5/1
f 61/5/1 56/5/1 55/5/1
f 62/5/1 56/5/1 61/5/1
f 63/5/1 58/5/1 57/5/1
f 64/5/1 58/5/1 63/5/1
f 65/7/1 60/7/1 59/7/1
f 66/7/1 60/7/1 65/7/1
f 67/7/1 62/7/1 61/7/1
f 68/7/1 62/7/1 67/7/1
f 69/7/1 64/7/1 63/7/1
f 70/7/1 64/7/1 69/7/1
f 77/5/1 72/5/1 71/5/1
f 78/5/1 72/5/1 77/5/1
f 79/5/1 74/5/1 73/5/1
f 80/5/1 74/5/1 79/5/1
f 81/5/1 76/5/1 75/5/1
f 82/5/1 76/5/1 81/5/1
f 83/7/1 78/7/1 77/7/1
f 84/7/1 78/7/1 83/7/1
f 85/7/1 80/7/1 79/7/1
f 86/7/1 80/7/1 85/7/1
f 87/7/1 82/7/1 81/7/1
f 88/7/1 82/7/1 87/7/1
f 89/2/2 90/2/2 91/2/2
f 91/2/2 90/2/2 92/2/2
f 91/3/2 92/3/2 93/3/2
f 93/3/2 92/3/2 94/3/2
f 95/5/2 96/5/2 101/5/2
f 101/5/2 96/5/2 102/5/2
f 97/5/2 98/5/2 103/5/2
f 103/5/2 98/5/2 104/5/2
f 99/5/2 100/5/2 105/5/2
f 105/5/2 100/5/2 106/5/2
f 101/7/2 102/7/2 107/7/2
f 107/7/2 102/7/2 108/7/2
f 103/7/2 104/7/2 109/7/2
f 109/7/2 104/7/2 110/7/2
f 105/7/2 106/7/2 111/7/2
f 111/7/2 106/7/2 112/7/2
f 113/5/2 114/5/2 119/5/2
f 119/5/2 114/5/2 120/5/2
f 115/5/2 116/5/2 121/5/2
f 121/5/2 116/5/2 122/5/2
f 117/5/2 118/5/2 123/5/2
f 123/5/2 118/5/2 124/5/2
f 119/7/2 120/7/2 125/7/2
f 125/7/2 120/7/2 126/7/2
f 121/7/2 122/7/2 127/7/2
f 127/7/2 122/7/2 128/7/2
f 123/7/2 124/7/2 129/7/2
f 129/7/2 124/7/2 130/7/2
f 131/10/2 132/10/2 133/10/2
f 133/10/2 132/10/2 134/10/2
f 133/9/2 134/9/2 135/9/2
f 135/9/2 134/9/2 136/9/2
f 135/1/2 136/1/2 137/1/2
f 137/1/2 136/1/2 138/1/2
f 139/5/2 140/5/2 145/5/2
f 145/5/2 140/5/2 146/5/2
f 141/5/2 142/5/2 147/5/2
f 147/5/2 142/5/2 148/5/2
f 143/5/2 144/5/2 149/5/2
f 149/5/2 144/5/2 150/5/2
f 145/7/2 146/7/2 151/7/2
f 151/7/2 146/7/2 152/7/2
f 147/7/2 148/7/2 153/7/2
f 153/7/2 148/7/2 154/7/2
f 149/7/2 150/7/2 155/7/2
f 155/7/2 150/7/2 156/7/2
f 157/2/2 158/2/2 166/2/2
f 158/6/2 159/6/2 167/6/2
f 166/2/2 158/2/2 167/2/2
f 159/4/2 160/4/2 168/4/2
f 167/6/2 159/6/2 168/6/2
f 160/6/2 161/6/2 169/6/2
f 168/4/2 160/4/2 169/4/2
f 161/4/2 162/4/2 170/4/2
f 169/6/2 161/6/2 170/6/2
f 162/6/2 163/6/2 171/6/2
f 170/4/2 162/4/2 171/4/2
f 163/4/2 164/4/2 172/4/2
f 171/6/2 163/6/2 172/6/2
f 164/6/2 165/6/2 173/6/2
f 172/4/2 164/4/2 173/4/2
f 173/6/2 165/6/2 174/6/2
f 168/5/2 169/5/2 175/5/2
f 175/5/2 169/5/2 176/5/2
f 170/5/2 171/5/2 177/5/2
f 177/5/2 171/5/2 178/5/2
f 172/5/2 173/5/2 179/5/2
f 179/5/2 173/5/2 180/5/2
f 175/7/2 176/7/2 181/7/2
f 181/7/2 176/7/2 182/7/2
f 177/7/2 178/7/2 183/7/2
f 183/7/2 178/7/2 184/7/2
f 179/7/2 180/7/2 185/7/2
f 185/7/2 180/7/2 186/7/2
f 190/2/3 188/2/3 187/2/3
f 191/3/3 189/3/3 188/3/3
f 191/2/3 188/2/3 190/2/3
f 192/3/3 189/3/3 191/3/3
f 193/2/3 190/2/3 187/2/3
f 194/2/3 190/2/3 193/2/3
f 198/5/3 196/5/3 195/5/3
f 199/7/3 197/7/3 196/7/3
f 199/5/3 196/5/3 198/5/3
f 200/7/3 197/7/3 199/7/3
f 204/5/3 202/5/3 201/5/3
f 205/7/3 203/7/3 202/7/3
f 205/5/3 202/5/3 204/5/3
f 206/7/3 203/7/3 205/7/3
f 210/5/3 208/5/3 207/5/3
f 211/7/3 209/7/3 208/7/3
f 211/5/3 208/5/3 210/5/3
f 212/7/3 209/7/3 211/7/3
f 216/5/3 214/5/3 213/5/3
f 217/7/3 215/7/3 214/7/3
f 217/5/3 214/5/3 216/5/3
f 218/7/3 215/7/3 217/7/3
f 222/5/3 220/5/3 219/5/3
f 223/7/3 221/7/3 220/7/3
f 223/5/3 220/5/3 222/5/3
f 224/7/3 221/7/3 223/7/3
f 228/5/3 226/5/3 225/5/3
f 229/7/3 227/7/3 226/7/3
f 229/5/3 226/5/3 228/5/3
f 230/7/3 227/7/3 229/7/3
f 234/5/3 232/5/3 231/5/3
f 235/7/3 233/7/3 232/7/3
f 235/5/3 232/5/3 234/5/3
f 236/7/3 233/7/3 235/7/3
f 240/5/3 238/5/3 237/5/3
f 241/7/3 239/7/3 238/7/3
f 241/5/3 238/5/3 240/5/3
f 242/7/3 239/7/3 241/7/3
f 246/5/3 244/5/3 243/5/3
f 247/7/3 245/7/3 244/7/3
f 247/5/3 244/5/3 246/5/3
f 248/7/3 245/7/3 247/7/3
f 252/5/3 250/5/3 249/5/3
f 253/7/3 251/7/3 250/7/3
f 253/5/3 250/5/3 252/5/3
f 254/7/3 251/7/3 253/7/3
f 258/5/3 256/5/3 255/5/3
f 259/7/3 257/7/3 256/7/3
f 259/5/3 256/5/3 258/5/3
f 260/7/3 257/7/3 259/7/3
f 264/5/3 262/5/3 261/5/3
f 265/7/3 263/7/3 262/7/3
f 265/5/3 262/5/3 264/5/3
f 266/7/3 263/7/3 265/7/3
f 271/10/3 268/10/3 267/10/3
f 272/9/3 269/9/3 268/9/3
f 272/10/3 268/10/3 271/10/3
f 273/1/3 270/1/3 269/1/3
f 273/9/3 269/9/3 272/9/3
f 274/1/3 270/1/3 273/1/3
f 275/2/4 276/2/4 278/2/4
f 276/3/4 277/3/4 279/3/4
f 278/2/4 276/2/4 279/2/4
f 279/3/4 277/3/4 280/3/4
f 281/5/4 282/5/4 284/5/4
f 282/7/4 283/7/4 285/7/4
f 284/5/4 282/5/4 285/5/4
f 285/7/4 283/7/4 286/7/4
f 287/5/4 288/5/4 290/5/4
f 288/7/4 289/7/4 291/7/4
f 290/5/4 288/5/4 291/5/4
f 291/7/4 289/7/4 292/7/4
f 293/5/4 294/5/4 296/5/4
f 294/7/4 295/7/4 297/7/4
f 296/5/4 294/5/4 297/5/4
f 297/7/4 295/7/4 298/7/4
f 299/5/4 300/5/4 302/5/4
f 300/7/4 301/7/4 303/7/4
f 302/5/4 300/5/4 303/5/4
f 303/7/4 301/7/4 304/7/4
f 305/5/4 306/5/4 308/5/4
f 306/7/4 307/7/4 309/7/4
f 308/5/4 306/5/4 309/5/4
f 309/7/4 307/7/4 310/7/4
f 311/5/4 312/5/4 314/5/4
f 312/7/4 313/7/4 315/7/4
f 314/5/4 312/5/4 315/5/4
f 315/7/4 313/7/4 316/7/4
f 317/5/4 318/5/4 320/5/4
f 318/7/4 319/7/4 321/7/4
f 320/5/4 318/5/4 321/5/4
f 321/7/4 319/7/4 322/7/4
f 323/5/4 324/5/4 326/5/4
f 324/7/4 325/7/4 327/7/4
f 326/5/4 324/5/4 327/5/4
f 327/7/4 325/7/4 328/7/4
f 329/5/4 330/5/4 332/5/4
f 330/7/4 331/7/4 333/7/4
f 332/5/4 330/5/4 333/5/4
f 333/7/4 331/7/4 334/7/4
f 335/5/4 336/5/4 338/5/4
f 336/7/4 337/7/4 339/7/4
f 338/5/4 336/5/4 339/5/4
f 339/7/4 337/7/4 340/7/4
f 341/5/4 342/5/4 344/5/4
f 342/7/4 343/7/4 345/7/4
f 344/5/4 342/5/4 345/5/4
f 345/7/4 343/7/4 346/7/4
f 347/5/4 348/5/4 350/5/4
f 348/7/4 349/7/4 351/7/4
f 350/5/4 348/5/4 351/5/4
f 351/7/4 349/7/4 352/7/4
f 353/2/4 354/2/4 355/2/4
f 355/2/4 354/2/4 356/2/4
f 355/6/4 356/6/4 357/6/4
f 355/6/4 357/6/4 361/6/4
f 357/10/4 358/10/4 361/10/4
f 358/9/4 359/9/4 362/9/4
f 361/10/4 358/10/4 362/10/4
f 359/1/4 360/1/4 363/1/4
f 362/9/4 359/9/4 363/9/4
f 363/1/4 360/1/4 364/1/4
f 355/6/4 361/6/4 365/6/4
f 365/6/4 361/6/4 366/6/4
f 369/2/5 368/2/5 367/2/5
f 370/2/5 368/2/5 369/2/5
f 371/2/5 369/2/5 367/2/5
f 371/6/5 370/6/5 369/6/5
f 372/6/5 370/6/5 371/6/5
f 373/2/5 371/2/5 367/2/5
f 373/4/5 372/4/5 371/4/5
f 374/4/5 372/4/5 373/4/5
f 375/2/5 373/2/5 367/2/5
f 375/6/5 374/6/5 373/6/5
f 376/6/5 374/6/5 375/6/5
f 377/6/5 374/6/5 376/6/5
f 378/6/5 374/6/5 377/6/5
f 379/2/5 375/2/5 367/2/5
f 379/4/5 376/4/5 375/4/5
f 380/8/5 377/8/5 376/8/5
f 380/4/5 376/4/5 379/4/5
f 381/4/5 378/4/5 377/4/5
f 381/8/5 377/8/5 380/8/5
f 382/4/5 378/4/5 381/4/5
f 383/6/5 380/6/5 379/6/5
f 383/2/5 379/2/5 367/2/5
f 383/6/5 382/6/5 381/6/5
f 383/6/5 381/6/5 380/6/5
f 384/6/5 382/6/5 383/6/5
f 385/2/5 383/2/5 367/2/5
f 385/4/5 384/4/5 383/4/5
f 386/4/5 384/4/5 385/4/5
f 387/2/5 385/2/5 367/2/5
f 388/6/5 386/6/5 385/6/5
f 388/2/5 385/2/5 387/2/5
f 389/6/5 386/6/5 388/6/5
f 390/2/6 391/2/6 393/2/6
f 393/2/6 391/2/6 394/2/6
f 392/2/6 393/2/6 395/2/6
f 393/6/6 394/6/6 395/6/6
f 395/6/6 394/6/6 396/6/6
f 396/6/6 394/6/6 397/6/6
f 397/6/6 394/6/6 398/6/6
f 398/6/6 394/6/6 399/6/6
f 399/6/6 394/6/6 400/6/6
f 400/6/6 394/6/6 401/6/6
f 401/6/6 394/6/6 402/6/6
f 392/2/6 395/2/6 403/2/6
f 396/4/6 397/4/6 404/4/6
f 404/4/6 397/4/6 405/4/6
f 398/4/6 399/4/6 406/4/6
f 406/4/6 399/4/6 407/4/6
f 400/4/6 401/4/6 408/4/6
f 408/4/6 401/4/6 409/4/6
f 406/6/6 407/6/6 411/6/6
f 409/6/6 410/6/6 411/6/6
f 408/6/6 409/6/6 411/6/6
f 407/6/6 408/6/6 411/6/6
f 392/2/6 403/2/6 411/2/6
f 405/6/6 406/6/6 411/6/6
f 404/6/6 405/6/6 411/6/6
f 403/6/6 404/6/6 411/6/6
f 411/6/6 410/6/6 412/6/6
f 412/6/6 410/6/6 413/6/6
f 413/6/6 410/6/6 414/6/6
f 414/6/6 410/6/6 415/6/6
f 415/6/6 410/6/6 416/6/6
f 416/6/6 410/6/6 417/6/6
f 417/6/6 410/6/6 418/6/6
f 392/2/6 411/2/6 419/2/6
f 412/4/6 413/4/6 420/4/6
f 420/4/6 413/4/6 421/4/6
f 414/8/6 415/8/6 422/8/6
f 422/8/6 415/8/6 423/8/6
f 416/4/6 417/4/6 424/4/6
f 424/4/6 417/4/6 425/4/6
f 422/6/6 423/6/6 427/6/6
f 425/6/6 426/6/6 427/6/6
f 424/6/6 425/6/6 427/6/6
f 423/6/6 424/6/6 427/6/6
f 392/2/6 419/2/6 427/2/6
f 421/6/6 422/6/6 427/6/6
f 420/6/6 421/6/6 427/6/6
f 419/6/6 420/6/6 427/6/6
f 427/6/6 426/6/6 428/6/6
f 428/6/6 426/6/6 429/6/6
f 429/6/6 426/6/6 430/6/6
f 430/6/6 426/6/6 431/6/6
f 431/6/6 426/6/6 432/6/6
f 432/6/6 426/6/6 433/6/6
f 433/6/6 426/6/6 434/6/6
f 392/2/6 427/2/6 435/2/6
f 428/4/6 429/4/6 436/4/6
f 436/4/6 429/4/6 437/4/6
f 430/4/6 431/4/6 438/4/6
f 438/4/6 431/4/6 439/4/6
f 432/4/6 433/4/6 440/4/6
f 440/4/6 433/4/6 441/4/6
f 392/2/6 435/2/6 443/2/6
f 436/6/6 437/6/6 444/6/6
f 443/2/6 435/2/6 444/2/6
f 435/6/6 436/6/6 444/6/6
f 437/6/6 438/6/6 444/6/6
f 444/6/6 438/6/6 445/6/6
f 441/6/6 442/6/6 446/6/6
f 440/6/6 441/6/6 446/6/6
f 439/6/6 440/6/6 446/6/6
f 446/6/6 442/6/6 447/6/6
f 448/3/6 449/3/6 450/3/6
f 450/3/6 449/3/6 451/3/6
f 452/7/6 453/7/6 460/7/6
f 460/7/6 453/7/6 461/7/6
f 454/7/6 455/7/6 462/7/6
f 462/7/6 455/7/6 463/7/6
f 456/7/6 457/7/6 464/7/6
f 464/7/6 457/7/6 465/7/6
f 458/7/6 459/7/6 466/7/6
f 466/7/6 459/7/6 467/7/6
f 468/7/6 469/7/6 476/7/6
f 476/7/6 469/7/6 477/7/6
f 470/7/6 471/7/6 478/7/6
f 478/7/6 471/7/6 479/7/6
f 472/7/6 473/7/6 480/7/6
f 480/7/6 473/7/6 481/7/6
f 474/7/6 475/7/6 482/7/6
f 482/7/6 475/7/6 483/7/6
f 484/7/6 485/7/6 492/7/6
f 492/7/6 485/7/6 493/7/6
f 486/7/6 487/7/6 494/7/6
f 494/7/6 487/7/6 495/7/6
f 488/7/6 489/7/6 496/7/6
f 496/7/6 489/7/6 497/7/6
f 490/7/6 491/7/6 498/7/6
f 498/7/6 491/7/6 499/7/6
f 500/1/6 501/1/6 502/1/6
f 502/1/6 501/1/6 503/1/6
