# MagicaVoxel @ Ephtracy

# group
o 

# material
mtllib House_01.mtl
usemtl palette

# normals
vn -1 0 0
vn 1 0 0
vn 0 0 1
vn 0 0 -1
vn 0 -1 0
vn 0 1 0

# texcoords
vt 0.267578 0.5
vt 0.298828 0.5
vt 0.310547 0.5
vt 0.369141 0.5
vt 0.529297 0.5
vt 0.751953 0.5
vt 0.958984 0.5
vt 0.982422 0.5

# verts
v -0.4 -0.5 0.4
v -0.4 -0.5 0.3
v -0.4 -0.5 -0.3
v -0.4 -0.5 -0.4
v -0.4 -0.4 0.4
v -0.4 -0.4 0.3
v -0.4 -0.4 -0.3
v -0.4 -0.4 -0.4
v -0.4 -0.1 0.5
v -0.4 -0.1 0.4
v -0.4 -0.1 -0.4
v -0.4 -0.1 -0.5
v -0.4 0 0.5
v -0.4 0 0.4
v -0.4 0 -0.4
v -0.4 0 -0.5
v -0.4 0.1 0.4
v -0.4 0.1 0.2
v -0.4 0.1 -0.2
v -0.4 0.1 -0.4
v -0.4 0.2 0.2
v -0.4 0.2 0.1
v -0.4 0.2 -0.1
v -0.4 0.2 -0.2
v -0.4 0.3 0.1
v -0.4 0.3 -0.1
v -0.3 -0.5 0.2
v -0.3 -0.5 -0.2
v -0.3 -0.4 0.1
v -0.3 -0.4 -0.1
v -0.3 -0.2 0.1
v -0.3 -0.2 -0.1
v -0.3 -0.1 0.1
v -0.3 -0.1 -0.1
v -0.3 0 0.2
v -0.3 0 -0.2
v -0.2 -0.5 0.4
v -0.2 -0.5 0.2
v -0.2 -0.4 0.4
v -0.2 -0.4 0.3
v -0.2 -0.3 0.4
v -0.2 -0.3 0.3
v -0.2 -0.2 0.4
v -0.2 -0.2 0.2
v -0.1 -0.2 0
v -0.1 -0.2 -0.1
v -0.1 -0.1 0
v -0.1 -0.1 -0.1
v 0 -0.5 0
v 0 -0.5 -0.1
v 0 -0.4 0
v 0 -0.4 -0.1
v 0.1 -0.5 0.2
v 0.1 -0.5 0.1
v 0.1 -0.4 0.2
v 0.1 -0.4 0.1
v 0.1 -0.2 0.2
v 0.1 -0.2 0.1
v 0.2 -0.5 0.1
v 0.2 -0.5 0
v 0.2 -0.4 0.1
v 0.2 -0.4 0
v 0.2 -0.4 -0.1
v 0.2 -0.2 0.1
v 0.2 -0.2 -0.1
v 0.2 -0.1 0.1
v 0.2 -0.1 -0.1
v 0.3 -0.5 0.4
v 0.3 -0.5 0.3
v 0.3 -0.5 -0.3
v 0.3 -0.5 -0.4
v 0.3 -0.4 0.4
v 0.3 -0.4 0.3
v 0.3 -0.4 -0.3
v 0.3 -0.4 -0.4
v -0.3 -0.5 0.4
v -0.3 -0.5 0.3
v -0.3 -0.5 -0.3
v -0.3 -0.5 -0.4
v -0.3 -0.4 0.4
v -0.3 -0.4 0.3
v -0.3 -0.4 -0.3
v -0.3 -0.4 -0.4
v -0.2 -0.5 0.1
v -0.2 -0.5 0
v -0.2 -0.4 0.1
v -0.2 -0.4 0
v -0.2 -0.4 -0.1
v -0.2 -0.2 0.1
v -0.2 -0.2 -0.1
v -0.2 -0.1 0.1
v -0.2 -0.1 -0.1
v -0.1 -0.5 0.4
v -0.1 -0.5 0.2
v -0.1 -0.5 0.1
v -0.1 -0.5 0
v -0.1 -0.5 -0.1
v -0.1 -0.4 0.4
v -0.1 -0.4 0.3
v -0.1 -0.4 0.2
v -0.1 -0.4 0.1
v -0.1 -0.4 0
v -0.1 -0.4 -0.1
v -0.1 -0.3 0.4
v -0.1 -0.3 0.3
v -0.1 -0.2 0.4
v -0.1 -0.2 0.2
v -0.1 -0.2 0.1
v 0.1 -0.2 0
v 0.1 -0.2 -0.1
v 0.1 -0.1 0
v 0.1 -0.1 -0.1
v 0.3 -0.5 0.2
v 0.3 -0.5 -0.2
v 0.3 -0.4 0.1
v 0.3 -0.4 -0.1
v 0.3 -0.2 0.1
v 0.3 -0.2 -0.1
v 0.3 -0.1 0.1
v 0.3 -0.1 -0.1
v 0.3 0 0.2
v 0.3 0 -0.2
v 0.4 -0.5 0.4
v 0.4 -0.5 0.3
v 0.4 -0.5 -0.3
v 0.4 -0.5 -0.4
v 0.4 -0.4 0.4
v 0.4 -0.4 0.3
v 0.4 -0.4 -0.3
v 0.4 -0.4 -0.4
v 0.4 -0.1 0.5
v 0.4 -0.1 0.4
v 0.4 -0.1 -0.4
v 0.4 -0.1 -0.5
v 0.4 0 0.5
v 0.4 0 0.4
v 0.4 0 -0.4
v 0.4 0 -0.5
v 0.4 0.1 0.4
v 0.4 0.1 0.2
v 0.4 0.1 -0.2
v 0.4 0.1 -0.4
v 0.4 0.2 0.2
v 0.4 0.2 0.1
v 0.4 0.2 -0.1
v 0.4 0.2 -0.2
v 0.4 0.3 0.1
v 0.4 0.3 -0.1
v -0.4 -0.1 0.5
v -0.4 0 0.5
v 0.4 -0.1 0.5
v 0.4 0 0.5
v -0.4 -0.5 0.4
v -0.4 -0.4 0.4
v -0.4 0 0.4
v -0.4 0.1 0.4
v -0.3 -0.5 0.4
v -0.3 -0.4 0.4
v -0.2 -0.5 0.4
v -0.2 -0.4 0.4
v -0.2 -0.3 0.4
v -0.2 -0.2 0.4
v -0.1 -0.5 0.4
v -0.1 -0.4 0.4
v -0.1 -0.3 0.4
v -0.1 -0.2 0.4
v 0.3 -0.5 0.4
v 0.3 -0.4 0.4
v 0.4 -0.5 0.4
v 0.4 -0.4 0.4
v 0.4 0 0.4
v 0.4 0.1 0.4
v -0.4 0.1 0.2
v -0.4 0.2 0.2
v -0.3 -0.5 0.2
v -0.3 0 0.2
v -0.2 -0.5 0.2
v -0.2 -0.2 0.2
v -0.2 -0.1 0.2
v -0.1 -0.2 0.2
v 0.1 -0.5 0.2
v 0.1 -0.4 0.2
v 0.1 -0.2 0.2
v 0.2 -0.4 0.2
v 0.2 -0.1 0.2
v 0.3 -0.5 0.2
v 0.3 0 0.2
v 0.4 0.1 0.2
v 0.4 0.2 0.2
v -0.4 0.2 0.1
v -0.4 0.3 0.1
v 0.4 0.2 0.1
v 0.4 0.3 0.1
v -0.2 -0.5 0
v -0.2 -0.4 0
v -0.1 -0.5 0
v -0.1 -0.4 0
v -0.1 -0.2 0
v -0.1 -0.1 0
v 0 -0.5 0
v 0 -0.4 0
v 0.1 -0.2 0
v 0.1 -0.1 0
v 0.2 -0.5 0
v 0.2 -0.4 0
v -0.2 -0.4 -0.1
v -0.2 -0.2 -0.1
v -0.2 -0.1 -0.1
v -0.1 -0.5 -0.1
v -0.1 -0.4 -0.1
v -0.1 -0.2 -0.1
v -0.1 -0.1 -0.1
v 0 -0.5 -0.1
v 0 -0.4 -0.1
v 0.1 -0.4 -0.1
v 0.1 -0.2 -0.1
v 0.1 -0.1 -0.1
v 0.2 -0.4 -0.1
v 0.2 -0.2 -0.1
v 0.2 -0.1 -0.1
v -0.4 -0.5 -0.3
v -0.4 -0.4 -0.3
v -0.3 -0.5 -0.3
v -0.3 -0.4 -0.3
v 0.3 -0.5 -0.3
v 0.3 -0.4 -0.3
v 0.4 -0.5 -0.3
v 0.4 -0.4 -0.3
v -0.4 -0.1 -0.4
v -0.4 0 -0.4
v 0.4 -0.1 -0.4
v 0.4 0 -0.4
v -0.4 -0.1 0.4
v -0.4 0 0.4
v 0.4 -0.1 0.4
v 0.4 0 0.4
v -0.4 -0.5 0.3
v -0.4 -0.4 0.3
v -0.3 -0.5 0.3
v -0.3 -0.4 0.3
v 0.3 -0.5 0.3
v 0.3 -0.4 0.3
v 0.4 -0.5 0.3
v 0.4 -0.4 0.3
v -0.2 -0.5 0.1
v -0.2 -0.4 0.1
v -0.2 -0.2 0.1
v -0.2 -0.1 0.1
v -0.1 -0.5 0.1
v -0.1 -0.4 0.1
v -0.1 -0.2 0.1
v 0.1 -0.5 0.1
v 0.1 -0.4 0.1
v 0.1 -0.2 0.1
v 0.2 -0.5 0.1
v 0.2 -0.4 0.1
v 0.2 -0.2 0.1
v 0.2 -0.1 0.1
v -0.4 0.2 -0.1
v -0.4 0.3 -0.1
v 0.4 0.2 -0.1
v 0.4 0.3 -0.1
v -0.4 0.1 -0.2
v -0.4 0.2 -0.2
v -0.3 -0.5 -0.2
v -0.3 0 -0.2
v -0.2 -0.4 -0.2
v -0.2 -0.1 -0.2
v -0.1 -0.4 -0.2
v -0.1 -0.2 -0.2
v 0.1 -0.4 -0.2
v 0.1 -0.2 -0.2
v 0.2 -0.4 -0.2
v 0.2 -0.1 -0.2
v 0.3 -0.5 -0.2
v 0.3 0 -0.2
v 0.4 0.1 -0.2
v 0.4 0.2 -0.2
v -0.4 -0.5 -0.4
v -0.4 -0.4 -0.4
v -0.4 0 -0.4
v -0.4 0.1 -0.4
v -0.3 -0.5 -0.4
v -0.3 -0.4 -0.4
v 0.3 -0.5 -0.4
v 0.3 -0.4 -0.4
v 0.4 -0.5 -0.4
v 0.4 -0.4 -0.4
v 0.4 0 -0.4
v 0.4 0.1 -0.4
v -0.4 -0.1 -0.5
v -0.4 0 -0.5
v 0.4 -0.1 -0.5
v 0.4 0 -0.5
v -0.4 -0.5 0.4
v -0.3 -0.5 0.4
v -0.2 -0.5 0.4
v -0.1 -0.5 0.4
v 0.3 -0.5 0.4
v 0.4 -0.5 0.4
v -0.4 -0.5 0.3
v -0.3 -0.5 0.3
v 0.3 -0.5 0.3
v 0.4 -0.5 0.3
v -0.3 -0.5 0.2
v -0.2 -0.5 0.2
v -0.1 -0.5 0.2
v 0.1 -0.5 0.2
v 0.3 -0.5 0.2
v -0.2 -0.5 0.1
v -0.1 -0.5 0.1
v 0.1 -0.5 0.1
v 0.2 -0.5 0.1
v -0.2 -0.5 0
v -0.1 -0.5 0
v 0 -0.5 0
v 0.2 -0.5 0
v -0.2 -0.5 -0.1
v -0.1 -0.5 -0.1
v 0 -0.5 -0.1
v 0.2 -0.5 -0.1
v -0.3 -0.5 -0.2
v 0.3 -0.5 -0.2
v -0.4 -0.5 -0.3
v -0.3 -0.5 -0.3
v 0.3 -0.5 -0.3
v 0.4 -0.5 -0.3
v -0.4 -0.5 -0.4
v -0.3 -0.5 -0.4
v 0.3 -0.5 -0.4
v 0.4 -0.5 -0.4
v -0.1 -0.2 0.2
v 0.1 -0.2 0.2
v -0.1 -0.2 0.1
v 0.1 -0.2 0.1
v -0.1 -0.2 0
v 0.1 -0.2 0
v -0.1 -0.2 -0.1
v 0.1 -0.2 -0.1
v -0.4 -0.1 0.5
v 0.4 -0.1 0.5
v -0.4 -0.1 0.4
v 0.4 -0.1 0.4
v -0.2 -0.1 0.1
v 0.2 -0.1 0.1
v -0.1 -0.1 0
v 0.1 -0.1 0
v -0.2 -0.1 -0.1
v -0.1 -0.1 -0.1
v 0.1 -0.1 -0.1
v 0.2 -0.1 -0.1
v -0.4 -0.1 -0.4
v 0.4 -0.1 -0.4
v -0.4 -0.1 -0.5
v 0.4 -0.1 -0.5
v -0.4 0 0.4
v 0.4 0 0.4
v -0.3 0 0.2
v 0.3 0 0.2
v -0.3 0 -0.2
v 0.3 0 -0.2
v -0.4 0 -0.4
v 0.4 0 -0.4
v -0.4 -0.4 0.4
v -0.3 -0.4 0.4
v 0.3 -0.4 0.4
v 0.4 -0.4 0.4
v -0.4 -0.4 0.3
v -0.3 -0.4 0.3
v 0.3 -0.4 0.3
v 0.4 -0.4 0.3
v -0.2 -0.4 0
v -0.1 -0.4 0
v 0 -0.4 0
v 0.2 -0.4 0
v -0.2 -0.4 -0.1
v -0.1 -0.4 -0.1
v 0 -0.4 -0.1
v 0.1 -0.4 -0.1
v 0.2 -0.4 -0.1
v -0.4 -0.4 -0.3
v -0.3 -0.4 -0.3
v 0.3 -0.4 -0.3
v 0.4 -0.4 -0.3
v -0.4 -0.4 -0.4
v -0.3 -0.4 -0.4
v 0.3 -0.4 -0.4
v 0.4 -0.4 -0.4
v -0.2 -0.2 0.4
v -0.1 -0.2 0.4
v -0.2 -0.2 0.2
v -0.1 -0.2 0.2
v -0.4 0 0.5
v 0.4 0 0.5
v -0.4 0 0.4
v 0.4 0 0.4
v -0.4 0 -0.4
v 0.4 0 -0.4
v -0.4 0 -0.5
v 0.4 0 -0.5
v -0.4 0.1 0.4
v 0.4 0.1 0.4
v -0.4 0.1 0.2
v 0.4 0.1 0.2
v -0.4 0.1 -0.2
v 0.4 0.1 -0.2
v -0.4 0.1 -0.4
v 0.4 0.1 -0.4
v -0.4 0.2 0.2
v 0.4 0.2 0.2
v -0.4 0.2 0.1
v 0.4 0.2 0.1
v -0.4 0.2 -0.1
v 0.4 0.2 -0.1
v -0.4 0.2 -0.2
v 0.4 0.2 -0.2
v -0.4 0.3 0.1
v 0.4 0.3 0.1
v -0.4 0.3 -0.1
v 0.4 0.3 -0.1

# faces
f 5/5/1 2/5/1 1/5/1
f 6/5/1 2/5/1 5/5/1
f 7/5/1 4/5/1 3/5/1
f 8/5/1 4/5/1 7/5/1
f 13/2/1 10/2/1 9/2/1
f 14/2/1 10/2/1 13/2/1
f 15/2/1 12/2/1 11/2/1
f 16/2/1 12/2/1 15/2/1
f 17/2/1 15/2/1 14/2/1
f 18/2/1 15/2/1 17/2/1
f 19/2/1 15/2/1 18/2/1
f 20/2/1 15/2/1 19/2/1
f 21/2/1 19/2/1 18/2/1
f 22/2/1 19/2/1 21/2/1
f 23/2/1 19/2/1 22/2/1
f 24/2/1 19/2/1 23/2/1
f 25/2/1 23/2/1 22/2/1
f 26/2/1 23/2/1 25/2/1
f 29/3/1 28/3/1 27/3/1
f 30/3/1 28/3/1 29/3/1
f 31/3/1 29/3/1 27/3/1
f 31/6/1 30/6/1 29/6/1
f 32/3/1 28/3/1 30/3/1
f 32/6/1 30/6/1 31/6/1
f 33/3/1 31/3/1 27/3/1
f 33/2/1 32/2/1 31/2/1
f 34/3/1 28/3/1 32/3/1
f 34/2/1 32/2/1 33/2/1
f 35/3/1 33/3/1 27/3/1
f 35/3/1 34/3/1 33/3/1
f 36/3/1 28/3/1 34/3/1
f 36/3/1 34/3/1 35/3/1
f 39/1/1 38/1/1 37/1/1
f 40/1/1 38/1/1 39/1/1
f 41/3/1 40/3/1 39/3/1
f 42/1/1 38/1/1 40/1/1
f 42/3/1 40/3/1 41/3/1
f 43/1/1 42/1/1 41/1/1
f 44/1/1 38/1/1 42/1/1
f 44/1/1 42/1/1 43/1/1
f 47/4/1 46/4/1 45/4/1
f 48/4/1 46/4/1 47/4/1
f 51/7/1 50/7/1 49/7/1
f 52/7/1 50/7/1 51/7/1
f 55/3/1 54/3/1 53/3/1
f 56/3/1 54/3/1 55/3/1
f 57/2/1 56/2/1 55/2/1
f 58/2/1 56/2/1 57/2/1
f 61/3/1 60/3/1 59/3/1
f 62/3/1 60/3/1 61/3/1
f 64/6/1 62/6/1 61/6/1
f 64/6/1 63/6/1 62/6/1
f 65/6/1 63/6/1 64/6/1
f 66/2/1 65/2/1 64/2/1
f 67/2/1 65/2/1 66/2/1
f 72/5/1 69/5/1 68/5/1
f 73/5/1 69/5/1 72/5/1
f 74/5/1 71/5/1 70/5/1
f 75/5/1 71/5/1 74/5/1
f 76/5/2 77/5/2 80/5/2
f 80/5/2 77/5/2 81/5/2
f 78/5/2 79/5/2 82/5/2
f 82/5/2 79/5/2 83/5/2
f 84/3/2 85/3/2 86/3/2
f 86/3/2 85/3/2 87/3/2
f 86/6/2 87/6/2 89/6/2
f 87/6/2 88/6/2 89/6/2
f 89/6/2 88/6/2 90/6/2
f 89/2/2 90/2/2 91/2/2
f 91/2/2 90/2/2 92/2/2
f 93/1/2 94/1/2 98/1/2
f 98/1/2 94/1/2 99/1/2
f 94/3/2 95/3/2 100/3/2
f 99/1/2 94/1/2 100/1/2
f 100/3/2 95/3/2 101/3/2
f 96/8/2 97/8/2 102/8/2
f 102/8/2 97/8/2 103/8/2
f 98/3/2 99/3/2 104/3/2
f 99/1/2 100/1/2 105/1/2
f 104/3/2 99/3/2 105/3/2
f 104/1/2 105/1/2 106/1/2
f 100/2/2 101/2/2 107/2/2
f 106/1/2 105/1/2 107/1/2
f 105/1/2 100/1/2 107/1/2
f 107/2/2 101/2/2 108/2/2
f 109/4/2 110/4/2 111/4/2
f 111/4/2 110/4/2 112/4/2
f 113/3/2 114/3/2 115/3/2
f 115/3/2 114/3/2 116/3/2
f 113/3/2 115/3/2 117/3/2
f 115/6/2 116/6/2 117/6/2
f 116/3/2 114/3/2 118/3/2
f 117/6/2 116/6/2 118/6/2
f 113/3/2 117/3/2 119/3/2
f 117/2/2 118/2/2 119/2/2
f 118/3/2 114/3/2 120/3/2
f 119/2/2 118/2/2 120/2/2
f 113/3/2 119/3/2 121/3/2
f 119/3/2 120/3/2 121/3/2
f 120/3/2 114/3/2 122/3/2
f 121/3/2 120/3/2 122/3/2
f 123/5/2 124/5/2 127/5/2
f 127/5/2 124/5/2 128/5/2
f 125/5/2 126/5/2 129/5/2
f 129/5/2 126/5/2 130/5/2
f 131/2/2 132/2/2 135/2/2
f 135/2/2 132/2/2 136/2/2
f 133/2/2 134/2/2 137/2/2
f 137/2/2 134/2/2 138/2/2
f 136/2/2 137/2/2 139/2/2
f 139/2/2 137/2/2 140/2/2
f 140/2/2 137/2/2 141/2/2
f 141/2/2 137/2/2 142/2/2
f 140/2/2 141/2/2 143/2/2
f 143/2/2 141/2/2 144/2/2
f 144/2/2 141/2/2 145/2/2
f 145/2/2 141/2/2 146/2/2
f 144/2/2 145/2/2 147/2/2
f 147/2/2 145/2/2 148/2/2
f 151/2/3 150/2/3 149/2/3
f 152/2/3 150/2/3 151/2/3
f 157/5/3 154/5/3 153/5/3
f 158/5/3 154/5/3 157/5/3
f 163/1/3 160/1/3 159/1/3
f 164/3/3 161/3/3 160/3/3
f 164/1/3 160/1/3 163/1/3
f 165/1/3 162/1/3 161/1/3
f 165/3/3 161/3/3 164/3/3
f 166/1/3 162/1/3 165/1/3
f 169/5/3 168/5/3 167/5/3
f 170/5/3 168/5/3 169/5/3
f 171/2/3 156/2/3 155/2/3
f 172/2/3 156/2/3 171/2/3
f 177/3/3 176/3/3 175/3/3
f 178/3/3 176/3/3 177/3/3
f 179/3/3 176/3/3 178/3/3
f 180/2/3 179/2/3 178/2/3
f 183/2/3 179/2/3 180/2/3
f 184/3/3 182/3/3 181/3/3
f 184/2/3 183/2/3 182/2/3
f 185/3/3 176/3/3 179/3/3
f 185/2/3 183/2/3 184/2/3
f 185/2/3 179/2/3 183/2/3
f 186/3/3 184/3/3 181/3/3
f 186/3/3 185/3/3 184/3/3
f 187/3/3 176/3/3 185/3/3
f 187/3/3 185/3/3 186/3/3
f 188/2/3 174/2/3 173/2/3
f 189/2/3 174/2/3 188/2/3
f 192/2/3 191/2/3 190/2/3
f 193/2/3 191/2/3 192/2/3
f 196/8/3 195/8/3 194/8/3
f 197/8/3 195/8/3 196/8/3
f 202/4/3 199/4/3 198/4/3
f 203/4/3 199/4/3 202/4/3
f 204/7/3 201/7/3 200/7/3
f 205/7/3 201/7/3 204/7/3
f 210/2/3 207/2/3 206/2/3
f 210/2/3 208/2/3 207/2/3
f 211/2/3 208/2/3 210/2/3
f 212/2/3 208/2/3 211/2/3
f 213/3/3 210/3/3 209/3/3
f 214/6/3 211/6/3 210/6/3
f 214/3/3 210/3/3 213/3/3
f 215/6/3 211/6/3 214/6/3
f 216/6/3 211/6/3 215/6/3
f 218/2/3 216/2/3 215/2/3
f 218/2/3 217/2/3 216/2/3
f 219/2/3 217/2/3 218/2/3
f 220/2/3 217/2/3 219/2/3
f 223/5/3 222/5/3 221/5/3
f 224/5/3 222/5/3 223/5/3
f 227/5/3 226/5/3 225/5/3
f 228/5/3 226/5/3 227/5/3
f 231/2/3 230/2/3 229/2/3
f 232/2/3 230/2/3 231/2/3
f 233/2/4 234/2/4 235/2/4
f 235/2/4 234/2/4 236/2/4
f 237/5/4 238/5/4 239/5/4
f 239/5/4 238/5/4 240/5/4
f 241/5/4 242/5/4 243/5/4
f 243/5/4 242/5/4 244/5/4
f 245/3/4 246/3/4 249/3/4
f 247/2/4 248/2/4 250/2/4
f 249/3/4 246/3/4 250/3/4
f 246/2/4 247/2/4 250/2/4
f 250/2/4 248/2/4 251/2/4
f 251/2/4 248/2/4 254/2/4
f 252/3/4 253/3/4 255/3/4
f 253/2/4 254/2/4 256/2/4
f 255/3/4 253/3/4 256/3/4
f 254/2/4 248/2/4 257/2/4
f 256/2/4 254/2/4 257/2/4
f 257/2/4 248/2/4 258/2/4
f 259/2/4 260/2/4 261/2/4
f 261/2/4 260/2/4 262/2/4
f 265/3/4 266/3/4 267/3/4
f 267/3/4 266/3/4 268/3/4
f 265/3/4 267/3/4 269/3/4
f 267/2/4 268/2/4 269/2/4
f 269/2/4 268/2/4 270/2/4
f 265/3/4 269/3/4 271/3/4
f 269/6/4 270/6/4 271/6/4
f 270/2/4 268/2/4 272/2/4
f 271/6/4 270/6/4 272/6/4
f 265/3/4 271/3/4 273/3/4
f 271/2/4 272/2/4 273/2/4
f 268/3/4 266/3/4 274/3/4
f 273/2/4 272/2/4 274/2/4
f 272/2/4 268/2/4 274/2/4
f 265/3/4 273/3/4 275/3/4
f 273/3/4 274/3/4 275/3/4
f 274/3/4 266/3/4 276/3/4
f 275/3/4 274/3/4 276/3/4
f 263/2/4 264/2/4 277/2/4
f 277/2/4 264/2/4 278/2/4
f 279/5/4 280/5/4 283/5/4
f 283/5/4 280/5/4 284/5/4
f 285/5/4 286/5/4 287/5/4
f 287/5/4 286/5/4 288/5/4
f 281/2/4 282/2/4 289/2/4
f 289/2/4 282/2/4 290/2/4
f 291/2/4 292/2/4 293/2/4
f 293/2/4 292/2/4 294/2/4
f 301/5/5 296/5/5 295/5/5
f 302/5/5 296/5/5 301/5/5
f 303/5/5 300/5/5 299/5/5
f 304/5/5 300/5/5 303/5/5
f 306/1/5 298/1/5 297/1/5
f 307/1/5 298/1/5 306/1/5
f 310/3/5 306/3/5 305/3/5
f 310/3/5 307/3/5 306/3/5
f 311/3/5 307/3/5 310/3/5
f 312/3/5 309/3/5 308/3/5
f 313/3/5 309/3/5 312/3/5
f 314/3/5 310/3/5 305/3/5
f 317/3/5 309/3/5 313/3/5
f 318/8/5 315/8/5 314/8/5
f 318/3/5 314/3/5 305/3/5
f 319/8/5 315/8/5 318/8/5
f 320/7/5 317/7/5 316/7/5
f 321/3/5 309/3/5 317/3/5
f 321/7/5 317/7/5 320/7/5
f 322/3/5 319/3/5 318/3/5
f 322/3/5 320/3/5 319/3/5
f 322/3/5 321/3/5 320/3/5
f 322/3/5 318/3/5 305/3/5
f 323/3/5 309/3/5 321/3/5
f 323/3/5 321/3/5 322/3/5
f 328/5/5 325/5/5 324/5/5
f 329/5/5 325/5/5 328/5/5
f 330/5/5 327/5/5 326/5/5
f 331/5/5 327/5/5 330/5/5
f 334/2/5 333/2/5 332/2/5
f 335/2/5 333/2/5 334/2/5
f 338/4/5 337/4/5 336/4/5
f 339/4/5 337/4/5 338/4/5
f 342/2/5 341/2/5 340/2/5
f 343/2/5 341/2/5 342/2/5
f 346/2/5 345/2/5 344/2/5
f 347/2/5 345/2/5 346/2/5
f 348/2/5 346/2/5 344/2/5
f 349/2/5 346/2/5 348/2/5
f 350/2/5 345/2/5 347/2/5
f 351/2/5 345/2/5 350/2/5
f 354/2/5 353/2/5 352/2/5
f 355/2/5 353/2/5 354/2/5
f 358/2/5 357/2/5 356/2/5
f 359/2/5 357/2/5 358/2/5
f 360/2/5 358/2/5 356/2/5
f 361/2/5 357/2/5 359/2/5
f 362/2/5 360/2/5 356/2/5
f 362/2/5 361/2/5 360/2/5
f 363/2/5 357/2/5 361/2/5
f 363/2/5 361/2/5 362/2/5
f 364/5/6 365/5/6 368/5/6
f 368/5/6 365/5/6 369/5/6
f 366/5/6 367/5/6 370/5/6
f 370/5/6 367/5/6 371/5/6
f 372/8/6 373/8/6 376/8/6
f 376/8/6 373/8/6 377/8/6
f 374/7/6 375/7/6 378/7/6
f 378/7/6 375/7/6 379/7/6
f 379/7/6 375/7/6 380/7/6
f 381/5/6 382/5/6 385/5/6
f 385/5/6 382/5/6 386/5/6
f 383/5/6 384/5/6 387/5/6
f 387/5/6 384/5/6 388/5/6
f 389/1/6 390/1/6 391/1/6
f 391/1/6 390/1/6 392/1/6
f 393/2/6 394/2/6 395/2/6
f 395/2/6 394/2/6 396/2/6
f 397/2/6 398/2/6 399/2/6
f 399/2/6 398/2/6 400/2/6
f 401/2/6 402/2/6 403/2/6
f 403/2/6 402/2/6 404/2/6
f 405/2/6 406/2/6 407/2/6
f 407/2/6 406/2/6 408/2/6
f 409/2/6 410/2/6 411/2/6
f 411/2/6 410/2/6 412/2/6
f 413/2/6 414/2/6 415/2/6
f 415/2/6 414/2/6 416/2/6
f 417/2/6 418/2/6 419/2/6
f 419/2/6 418/2/6 420/2/6
