# MagicaVoxel @ Ephtracy

# group
o 

# material
mtllib mine_01.mtl
usemtl palette

# normals
vn -1 0 0
vn 1 0 0
vn 0 0 1
vn 0 0 -1
vn 0 -1 0
vn 0 1 0

# texcoords
vt 0.302734 0.5
vt 0.310547 0.5
vt 0.369141 0.5
vt 0.986328 0.5
vt 0.994141 0.5

# verts
v -0.4 -0.5 0.4
v -0.4 -0.5 0.3
v -0.4 -0.5 0.1
v -0.4 -0.5 -0.1
v -0.4 -0.5 -0.3
v -0.4 -0.5 -0.4
v -0.4 -0.4 0.3
v -0.4 -0.4 0.2
v -0.4 -0.4 0.1
v -0.4 -0.4 -0.1
v -0.4 -0.4 -0.2
v -0.4 -0.4 -0.3
v -0.4 -0.3 0.3
v -0.4 -0.3 0.2
v -0.4 -0.3 -0.2
v -0.4 -0.3 -0.3
v -0.4 0 0.3
v -0.4 0 0.1
v -0.4 0.1 0.3
v -0.4 0.1 0.1
v -0.4 0.1 -0.1
v -0.4 0.2 0.1
v -0.4 0.2 -0.1
v -0.4 0.2 -0.3
v -0.4 0.3 0.4
v -0.4 0.3 0.3
v -0.4 0.3 -0.1
v -0.4 0.3 -0.4
v -0.3 0.3 -0.3
v -0.3 0.3 -0.4
v -0.3 0.4 -0.3
v -0.3 0.4 -0.4
v -0.2 -0.4 -0.3
v -0.2 -0.4 -0.4
v -0.2 -0.3 -0.3
v -0.2 -0.3 -0.4
v -0.1 -0.5 0.1
v -0.1 -0.5 -0.1
v -0.1 -0.4 0.1
v -0.1 -0.4 -0.1
v -0.1 0.1 0.4
v -0.1 0.1 0.3
v -0.1 0.1 -0.3
v -0.1 0.1 -0.4
v -0.1 0.2 0.4
v -0.1 0.2 0.3
v -0.1 0.2 -0.3
v -0.1 0.2 -0.4
v 0.1 -0.5 0.4
v 0.1 -0.5 0.3
v 0.1 -0.5 -0.1
v 0.1 -0.5 -0.2
v 0.1 -0.5 -0.3
v 0.1 -0.5 -0.4
v 0.1 -0.4 0.4
v 0.1 -0.4 0.3
v 0.1 -0.4 -0.1
v 0.1 -0.4 -0.2
v 0.1 -0.4 -0.3
v 0.1 -0.4 -0.4
v 0.2 -0.5 0.2
v 0.2 -0.5 0.1
v 0.2 -0.5 -0.2
v 0.2 -0.5 -0.3
v 0.2 -0.4 0.4
v 0.2 -0.4 0.3
v 0.2 -0.4 0.2
v 0.2 -0.4 0.1
v 0.2 -0.4 -0.2
v 0.2 -0.4 -0.3
v 0.2 -0.4 -0.4
v 0.2 -0.3 0.4
v 0.2 -0.3 0.3
v 0.2 -0.3 -0.3
v 0.2 -0.3 -0.4
v 0.3 -0.5 0.3
v 0.3 -0.5 0.2
v 0.3 -0.5 -0.1
v 0.3 -0.5 -0.2
v 0.3 -0.4 0.3
v 0.3 -0.4 0.2
v 0.3 -0.4 -0.1
v 0.3 -0.4 -0.2
v 0.3 -0.3 0.4
v 0.3 -0.3 0.3
v 0.3 -0.3 -0.1
v 0.3 -0.3 -0.2
v 0.3 -0.3 -0.3
v 0.3 -0.3 -0.4
v 0.3 0 0.4
v 0.3 0 0.3
v 0.3 0.1 0.4
v 0.3 0.1 0.3
v 0.3 0.2 -0.3
v 0.3 0.2 -0.4
v 0.3 0.3 0.4
v 0.3 0.3 0.3
v -0.3 -0.5 0.3
v -0.3 -0.5 0.1
v -0.3 -0.5 -0.2
v -0.3 -0.5 -0.3
v -0.3 -0.4 0.3
v -0.3 -0.4 0.2
v -0.3 -0.4 0.1
v -0.3 -0.4 -0.2
v -0.3 -0.4 -0.3
v -0.3 -0.4 -0.4
v -0.3 -0.3 0.4
v -0.3 -0.3 0.3
v -0.3 -0.3 0.2
v -0.3 -0.3 -0.2
v -0.3 -0.3 -0.3
v -0.3 0 0.4
v -0.3 0 0.3
v -0.3 0.1 0.4
v -0.3 0.1 0.3
v -0.3 0.2 -0.3
v -0.3 0.2 -0.4
v -0.3 0.3 0.4
v -0.3 0.3 0.3
v -0.2 -0.5 -0.1
v -0.2 -0.5 -0.2
v -0.2 -0.4 0.4
v -0.2 -0.4 0.3
v -0.2 -0.4 -0.1
v -0.2 -0.4 -0.2
v -0.2 -0.3 0.4
v -0.2 -0.3 0.3
v -0.1 -0.5 0.4
v -0.1 -0.5 0.3
v -0.1 -0.5 -0.3
v -0.1 -0.5 -0.4
v -0.1 -0.4 0.4
v -0.1 -0.4 0.3
v -0.1 -0.4 -0.3
v -0.1 -0.4 -0.4
v -0.1 -0.3 -0.3
v -0.1 -0.3 -0.4
v 0 -0.5 0.1
v 0 -0.5 -0.1
v 0 -0.4 0.1
v 0 -0.4 -0.1
v 0.1 0.1 0.4
v 0.1 0.1 0.3
v 0.1 0.1 -0.3
v 0.1 0.1 -0.4
v 0.1 0.2 0.4
v 0.1 0.2 0.3
v 0.1 0.2 -0.3
v 0.1 0.2 -0.4
v 0.2 -0.5 -0.1
v 0.2 -0.5 -0.2
v 0.2 -0.4 -0.1
v 0.2 -0.4 -0.2
v 0.3 0.3 -0.3
v 0.3 0.3 -0.4
v 0.3 0.4 -0.3
v 0.3 0.4 -0.4
v 0.4 -0.5 0.4
v 0.4 -0.5 0.3
v 0.4 -0.5 0.1
v 0.4 -0.5 -0.1
v 0.4 -0.5 -0.3
v 0.4 -0.5 -0.4
v 0.4 -0.4 0.3
v 0.4 -0.4 0.1
v 0.4 -0.4 -0.1
v 0.4 -0.4 -0.2
v 0.4 -0.4 -0.3
v 0.4 -0.3 -0.1
v 0.4 -0.3 -0.2
v 0.4 0 0.3
v 0.4 0 0.1
v 0.4 0.1 0.3
v 0.4 0.1 0.1
v 0.4 0.1 -0.1
v 0.4 0.2 0.1
v 0.4 0.2 -0.1
v 0.4 0.2 -0.3
v 0.4 0.3 0.4
v 0.4 0.3 0.3
v 0.4 0.3 -0.1
v 0.4 0.3 -0.4
v -0.4 -0.5 0.4
v -0.4 0.3 0.4
v -0.3 -0.5 0.4
v -0.3 -0.4 0.4
v -0.3 -0.3 0.4
v -0.3 0 0.4
v -0.3 0.1 0.4
v -0.3 0.3 0.4
v -0.2 -0.4 0.4
v -0.2 -0.3 0.4
v -0.1 -0.5 0.4
v -0.1 -0.4 0.4
v -0.1 0.1 0.4
v -0.1 0.2 0.4
v 0.1 -0.5 0.4
v 0.1 -0.4 0.4
v 0.1 0.1 0.4
v 0.1 0.2 0.4
v 0.2 -0.4 0.4
v 0.2 -0.3 0.4
v 0.3 -0.5 0.4
v 0.3 -0.4 0.4
v 0.3 -0.3 0.4
v 0.3 0 0.4
v 0.3 0.1 0.4
v 0.3 0.3 0.4
v 0.4 -0.5 0.4
v 0.4 0.3 0.4
v 0.2 -0.5 0.2
v 0.2 -0.4 0.2
v 0.3 -0.5 0.2
v 0.3 -0.4 0.2
v -0.4 0.1 0.1
v -0.4 0.2 0.1
v -0.1 -0.5 0.1
v -0.1 -0.4 0.1
v 0 -0.5 0.1
v 0 -0.4 0.1
v 0.4 0.1 0.1
v 0.4 0.2 0.1
v -0.4 -0.5 -0.1
v -0.4 -0.4 -0.1
v -0.4 0.2 -0.1
v -0.4 0.3 -0.1
v -0.3 -0.5 -0.1
v -0.3 -0.4 -0.1
v -0.2 -0.5 -0.1
v -0.2 -0.4 -0.1
v 0.1 -0.5 -0.1
v 0.1 -0.4 -0.1
v 0.2 -0.5 -0.1
v 0.2 -0.4 -0.1
v 0.3 -0.5 -0.1
v 0.3 -0.4 -0.1
v 0.3 -0.3 -0.1
v 0.4 -0.5 -0.1
v 0.4 -0.4 -0.1
v 0.4 -0.3 -0.1
v 0.4 0.2 -0.1
v 0.4 0.3 -0.1
v -0.4 -0.4 -0.2
v -0.4 -0.3 -0.2
v -0.3 -0.4 -0.2
v -0.3 -0.3 -0.2
v 0.2 -0.5 -0.2
v 0.2 -0.4 -0.2
v 0.3 -0.5 -0.2
v 0.3 -0.4 -0.2
v -0.4 -0.3 -0.3
v -0.4 0.2 -0.3
v -0.3 -0.5 -0.3
v -0.3 -0.4 -0.3
v -0.3 -0.3 -0.3
v -0.3 0.2 -0.3
v -0.3 0.3 -0.3
v -0.3 0.4 -0.3
v -0.2 -0.4 -0.3
v -0.2 -0.3 -0.3
v -0.1 -0.5 -0.3
v -0.1 -0.4 -0.3
v -0.1 -0.3 -0.3
v -0.1 0.1 -0.3
v -0.1 0.2 -0.3
v 0.1 -0.5 -0.3
v 0.1 -0.4 -0.3
v 0.1 0.1 -0.3
v 0.1 0.2 -0.3
v 0.2 -0.5 -0.3
v 0.2 -0.4 -0.3
v 0.2 -0.3 -0.3
v 0.3 -0.4 -0.3
v 0.3 -0.3 -0.3
v 0.3 0.2 -0.3
v 0.3 0.3 -0.3
v 0.3 0.4 -0.3
v 0.4 -0.4 -0.3
v 0.4 0.2 -0.3
v -0.4 -0.3 0.3
v -0.4 0 0.3
v -0.4 0.1 0.3
v -0.4 0.3 0.3
v -0.3 -0.5 0.3
v -0.3 -0.4 0.3
v -0.3 -0.3 0.3
v -0.3 0 0.3
v -0.3 0.1 0.3
v -0.3 0.3 0.3
v -0.2 -0.4 0.3
v -0.2 -0.3 0.3
v -0.1 -0.5 0.3
v -0.1 -0.4 0.3
v -0.1 0.1 0.3
v -0.1 0.2 0.3
v 0.1 -0.5 0.3
v 0.1 -0.4 0.3
v 0.1 0.1 0.3
v 0.1 0.2 0.3
v 0.2 -0.4 0.3
v 0.2 -0.3 0.3
v 0.3 -0.5 0.3
v 0.3 -0.4 0.3
v 0.3 -0.3 0.3
v 0.3 0 0.3
v 0.3 0.1 0.3
v 0.3 0.3 0.3
v 0.4 -0.4 0.3
v 0.4 0 0.3
v 0.4 0.1 0.3
v 0.4 0.3 0.3
v -0.4 -0.4 0.2
v -0.4 -0.3 0.2
v -0.3 -0.4 0.2
v -0.3 -0.3 0.2
v -0.4 -0.5 0.1
v -0.4 -0.4 0.1
v -0.4 0 0.1
v -0.4 0.1 0.1
v -0.3 -0.5 0.1
v -0.3 -0.4 0.1
v 0.2 -0.5 0.1
v 0.2 -0.4 0.1
v 0.3 -0.5 0.1
v 0.3 -0.4 0.1
v 0.4 -0.5 0.1
v 0.4 -0.4 0.1
v 0.4 0 0.1
v 0.4 0.1 0.1
v -0.4 0.1 -0.1
v -0.4 0.2 -0.1
v -0.1 -0.5 -0.1
v -0.1 -0.4 -0.1
v 0 -0.5 -0.1
v 0 -0.4 -0.1
v 0.4 0.1 -0.1
v 0.4 0.2 -0.1
v -0.3 -0.5 -0.2
v -0.3 -0.4 -0.2
v -0.2 -0.5 -0.2
v -0.2 -0.4 -0.2
v 0.1 -0.5 -0.2
v 0.1 -0.4 -0.2
v 0.2 -0.5 -0.2
v 0.2 -0.4 -0.2
v 0.3 -0.4 -0.2
v 0.3 -0.3 -0.2
v 0.4 -0.4 -0.2
v 0.4 -0.3 -0.2
v -0.4 -0.5 -0.4
v -0.4 0.3 -0.4
v -0.3 -0.5 -0.4
v -0.3 -0.4 -0.4
v -0.3 0.2 -0.4
v -0.3 0.3 -0.4
v -0.3 0.4 -0.4
v -0.2 -0.4 -0.4
v -0.2 -0.3 -0.4
v -0.1 -0.5 -0.4
v -0.1 -0.4 -0.4
v -0.1 -0.3 -0.4
v -0.1 0.1 -0.4
v -0.1 0.2 -0.4
v 0.1 -0.5 -0.4
v 0.1 -0.4 -0.4
v 0.1 0.1 -0.4
v 0.1 0.2 -0.4
v 0.2 -0.4 -0.4
v 0.2 -0.3 -0.4
v 0.3 -0.5 -0.4
v 0.3 -0.4 -0.4
v 0.3 -0.3 -0.4
v 0.3 0.2 -0.4
v 0.3 0.3 -0.4
v 0.3 0.4 -0.4
v 0.4 -0.5 -0.4
v 0.4 0.3 -0.4
v -0.4 -0.5 0.4
v -0.3 -0.5 0.4
v -0.1 -0.5 0.4
v 0.1 -0.5 0.4
v 0.3 -0.5 0.4
v 0.4 -0.5 0.4
v -0.4 -0.5 0.3
v -0.3 -0.5 0.3
v -0.1 -0.5 0.3
v 0.1 -0.5 0.3
v 0.3 -0.5 0.3
v 0.4 -0.5 0.3
v 0.2 -0.5 0.2
v 0.3 -0.5 0.2
v -0.4 -0.5 0.1
v -0.3 -0.5 0.1
v -0.1 -0.5 0.1
v 0 -0.5 0.1
v 0.2 -0.5 0.1
v 0.3 -0.5 0.1
v 0.4 -0.5 0.1
v -0.4 -0.5 -0.1
v -0.3 -0.5 -0.1
v -0.2 -0.5 -0.1
v -0.1 -0.5 -0.1
v 0 -0.5 -0.1
v 0.1 -0.5 -0.1
v 0.2 -0.5 -0.1
v 0.3 -0.5 -0.1
v 0.4 -0.5 -0.1
v -0.3 -0.5 -0.2
v -0.2 -0.5 -0.2
v 0.1 -0.5 -0.2
v 0.2 -0.5 -0.2
v 0.3 -0.5 -0.2
v -0.4 -0.5 -0.3
v -0.3 -0.5 -0.3
v -0.1 -0.5 -0.3
v 0.1 -0.5 -0.3
v 0.2 -0.5 -0.3
v 0.3 -0.5 -0.3
v 0.4 -0.5 -0.3
v -0.4 -0.5 -0.4
v -0.3 -0.5 -0.4
v -0.1 -0.5 -0.4
v 0.1 -0.5 -0.4
v 0.3 -0.5 -0.4
v 0.4 -0.5 -0.4
v -0.3 0 0.4
v 0.3 0 0.4
v -0.4 0 0.3
v -0.3 0 0.3
v 0.3 0 0.3
v 0.4 0 0.3
v -0.4 0 0.1
v 0.4 0 0.1
v -0.4 0.1 0.1
v 0.4 0.1 0.1
v -0.4 0.1 -0.1
v 0.4 0.1 -0.1
v -0.1 0.1 -0.3
v 0.1 0.1 -0.3
v -0.1 0.1 -0.4
v 0.1 0.1 -0.4
v -0.4 0.2 -0.1
v 0.4 0.2 -0.1
v -0.4 0.2 -0.3
v -0.3 0.2 -0.3
v -0.1 0.2 -0.3
v 0.1 0.2 -0.3
v 0.3 0.2 -0.3
v 0.4 0.2 -0.3
v -0.3 0.2 -0.4
v -0.1 0.2 -0.4
v 0.1 0.2 -0.4
v 0.3 0.2 -0.4
v -0.2 -0.4 0.4
v -0.1 -0.4 0.4
v 0.1 -0.4 0.4
v 0.2 -0.4 0.4
v -0.2 -0.4 0.3
v -0.1 -0.4 0.3
v 0.1 -0.4 0.3
v 0.2 -0.4 0.3
v 0.3 -0.4 0.3
v 0.4 -0.4 0.3
v -0.4 -0.4 0.2
v -0.3 -0.4 0.2
v 0.2 -0.4 0.2
v 0.3 -0.4 0.2
v -0.4 -0.4 0.1
v -0.3 -0.4 0.1
v -0.1 -0.4 0.1
v 0 -0.4 0.1
v 0.2 -0.4 0.1
v 0.3 -0.4 0.1
v 0.4 -0.4 0.1
v -0.4 -0.4 -0.1
v -0.3 -0.4 -0.1
v -0.2 -0.4 -0.1
v -0.1 -0.4 -0.1
v 0 -0.4 -0.1
v 0.1 -0.4 -0.1
v 0.2 -0.4 -0.1
v -0.4 -0.4 -0.2
v -0.3 -0.4 -0.2
v -0.2 -0.4 -0.2
v 0.1 -0.4 -0.2
v 0.2 -0.4 -0.2
v 0.3 -0.4 -0.2
v 0.4 -0.4 -0.2
v -0.3 -0.4 -0.3
v -0.2 -0.4 -0.3
v 0.1 -0.4 -0.3
v 0.2 -0.4 -0.3
v 0.3 -0.4 -0.3
v 0.4 -0.4 -0.3
v -0.3 -0.4 -0.4
v -0.2 -0.4 -0.4
v 0.1 -0.4 -0.4
v 0.2 -0.4 -0.4
v -0.3 -0.3 0.4
v -0.2 -0.3 0.4
v 0.2 -0.3 0.4
v 0.3 -0.3 0.4
v -0.4 -0.3 0.3
v -0.3 -0.3 0.3
v -0.2 -0.3 0.3
v 0.2 -0.3 0.3
v 0.3 -0.3 0.3
v -0.4 -0.3 0.2
v -0.3 -0.3 0.2
v 0.3 -0.3 -0.1
v 0.4 -0.3 -0.1
v -0.4 -0.3 -0.2
v -0.3 -0.3 -0.2
v 0.3 -0.3 -0.2
v 0.4 -0.3 -0.2
v -0.4 -0.3 -0.3
v -0.3 -0.3 -0.3
v -0.2 -0.3 -0.3
v -0.1 -0.3 -0.3
v 0.2 -0.3 -0.3
v 0.3 -0.3 -0.3
v -0.2 -0.3 -0.4
v -0.1 -0.3 -0.4
v 0.2 -0.3 -0.4
v 0.3 -0.3 -0.4
v -0.3 0.1 0.4
v -0.1 0.1 0.4
v 0.1 0.1 0.4
v 0.3 0.1 0.4
v -0.4 0.1 0.3
v -0.3 0.1 0.3
v -0.1 0.1 0.3
v 0.1 0.1 0.3
v 0.3 0.1 0.3
v 0.4 0.1 0.3
v -0.4 0.1 0.1
v 0.4 0.1 0.1
v -0.1 0.2 0.4
v 0.1 0.2 0.4
v -0.1 0.2 0.3
v 0.1 0.2 0.3
v -0.4 0.2 0.1
v 0.4 0.2 0.1
v -0.4 0.2 -0.1
v 0.4 0.2 -0.1
v -0.4 0.3 0.4
v -0.3 0.3 0.4
v 0.3 0.3 0.4
v 0.4 0.3 0.4
v -0.4 0.3 0.3
v -0.3 0.3 0.3
v 0.3 0.3 0.3
v 0.4 0.3 0.3
v -0.4 0.3 -0.1
v 0.4 0.3 -0.1
v -0.3 0.3 -0.3
v 0.3 0.3 -0.3
v -0.4 0.3 -0.4
v -0.3 0.3 -0.4
v 0.3 0.3 -0.4
v 0.4 0.3 -0.4
v -0.3 0.4 -0.3
v 0.3 0.4 -0.3
v -0.3 0.4 -0.4
v 0.3 0.4 -0.4

# faces
f 7/2/1 2/2/1 1/2/1
f 7/1/1 3/1/1 2/1/1
f 8/1/1 3/1/1 7/1/1
f 9/1/1 3/1/1 8/1/1
f 10/1/1 5/1/1 4/1/1
f 11/1/1 5/1/1 10/1/1
f 12/2/1 6/2/1 5/2/1
f 12/1/1 5/1/1 11/1/1
f 13/2/1 7/2/1 1/2/1
f 13/4/1 8/4/1 7/4/1
f 14/4/1 8/4/1 13/4/1
f 15/4/1 12/4/1 11/4/1
f 16/2/1 6/2/1 12/2/1
f 16/4/1 12/4/1 15/4/1
f 17/2/1 13/2/1 1/2/1
f 19/2/1 17/2/1 1/2/1
f 19/2/1 18/2/1 17/2/1
f 20/2/1 18/2/1 19/2/1
f 22/2/1 21/2/1 20/2/1
f 23/2/1 21/2/1 22/2/1
f 24/2/1 6/2/1 16/2/1
f 25/2/1 19/2/1 1/2/1
f 26/2/1 19/2/1 25/2/1
f 27/2/1 24/2/1 23/2/1
f 28/2/1 6/2/1 24/2/1
f 28/2/1 24/2/1 27/2/1
f 31/2/1 30/2/1 29/2/1
f 32/2/1 30/2/1 31/2/1
f 35/4/1 34/4/1 33/4/1
f 36/4/1 34/4/1 35/4/1
f 39/5/1 38/5/1 37/5/1
f 40/5/1 38/5/1 39/5/1
f 45/2/1 42/2/1 41/2/1
f 46/2/1 42/2/1 45/2/1
f 47/3/1 44/3/1 43/3/1
f 48/3/1 44/3/1 47/3/1
f 55/1/1 50/1/1 49/1/1
f 56/1/1 50/1/1 55/1/1
f 57/4/1 52/4/1 51/4/1
f 58/4/1 52/4/1 57/4/1
f 59/1/1 54/1/1 53/1/1
f 60/1/1 54/1/1 59/1/1
f 67/4/1 62/4/1 61/4/1
f 68/4/1 62/4/1 67/4/1
f 69/4/1 64/4/1 63/4/1
f 70/4/1 64/4/1 69/4/1
f 72/4/1 66/4/1 65/4/1
f 73/4/1 66/4/1 72/4/1
f 74/4/1 71/4/1 70/4/1
f 75/4/1 71/4/1 74/4/1
f 80/1/1 77/1/1 76/1/1
f 81/1/1 77/1/1 80/1/1
f 82/1/1 79/1/1 78/1/1
f 83/1/1 79/1/1 82/1/1
f 86/4/1 83/4/1 82/4/1
f 87/4/1 83/4/1 86/4/1
f 90/2/1 85/2/1 84/2/1
f 91/2/1 85/2/1 90/2/1
f 94/2/1 89/2/1 88/2/1
f 95/2/1 89/2/1 94/2/1
f 96/2/1 93/2/1 92/2/1
f 97/2/1 93/2/1 96/2/1
f 98/1/2 99/1/2 102/1/2
f 102/1/2 99/1/2 103/1/2
f 103/1/2 99/1/2 104/1/2
f 100/1/2 101/1/2 105/1/2
f 105/1/2 101/1/2 106/1/2
f 102/4/2 103/4/2 109/4/2
f 109/4/2 103/4/2 110/4/2
f 105/4/2 106/4/2 111/4/2
f 106/2/2 107/2/2 112/2/2
f 111/4/2 106/4/2 112/4/2
f 108/2/2 109/2/2 113/2/2
f 113/2/2 109/2/2 114/2/2
f 112/2/2 107/2/2 117/2/2
f 117/2/2 107/2/2 118/2/2
f 115/2/2 116/2/2 119/2/2
f 119/2/2 116/2/2 120/2/2
f 121/4/2 122/4/2 125/4/2
f 125/4/2 122/4/2 126/4/2
f 123/4/2 124/4/2 127/4/2
f 127/4/2 124/4/2 128/4/2
f 129/1/2 130/1/2 133/1/2
f 133/1/2 130/1/2 134/1/2
f 131/1/2 132/1/2 135/1/2
f 135/1/2 132/1/2 136/1/2
f 135/4/2 136/4/2 137/4/2
f 137/4/2 136/4/2 138/4/2
f 139/5/2 140/5/2 141/5/2
f 141/5/2 140/5/2 142/5/2
f 143/2/2 144/2/2 147/2/2
f 147/2/2 144/2/2 148/2/2
f 145/3/2 146/3/2 149/3/2
f 149/3/2 146/3/2 150/3/2
f 151/4/2 152/4/2 153/4/2
f 153/4/2 152/4/2 154/4/2
f 155/2/2 156/2/2 157/2/2
f 157/2/2 156/2/2 158/2/2
f 159/2/2 160/2/2 165/2/2
f 160/1/2 161/1/2 165/1/2
f 165/1/2 161/1/2 166/1/2
f 162/1/2 163/1/2 167/1/2
f 167/1/2 163/1/2 168/1/2
f 163/2/2 164/2/2 169/2/2
f 168/1/2 163/1/2 169/1/2
f 167/4/2 168/4/2 170/4/2
f 170/4/2 168/4/2 171/4/2
f 159/2/2 165/2/2 172/2/2
f 159/2/2 172/2/2 174/2/2
f 172/2/2 173/2/2 174/2/2
f 174/2/2 173/2/2 175/2/2
f 175/2/2 176/2/2 177/2/2
f 177/2/2 176/2/2 178/2/2
f 169/2/2 164/2/2 179/2/2
f 159/2/2 174/2/2 180/2/2
f 180/2/2 174/2/2 181/2/2
f 178/2/2 179/2/2 182/2/2
f 179/2/2 164/2/2 183/2/2
f 182/2/2 179/2/2 183/2/2
f 186/2/3 185/2/3 184/2/3
f 187/2/3 185/2/3 186/2/3
f 188/2/3 185/2/3 187/2/3
f 189/2/3 185/2/3 188/2/3
f 190/2/3 185/2/3 189/2/3
f 191/2/3 185/2/3 190/2/3
f 192/1/3 187/1/3 186/1/3
f 192/4/3 188/4/3 187/4/3
f 193/4/3 188/4/3 192/4/3
f 194/1/3 192/1/3 186/1/3
f 195/1/3 192/1/3 194/1/3
f 196/2/3 190/2/3 189/2/3
f 200/2/3 197/2/3 196/2/3
f 200/2/3 196/2/3 189/2/3
f 201/2/3 197/2/3 200/2/3
f 202/1/3 199/1/3 198/1/3
f 204/1/3 202/1/3 198/1/3
f 205/4/3 203/4/3 202/4/3
f 205/1/3 202/1/3 204/1/3
f 206/4/3 203/4/3 205/4/3
f 207/2/3 200/2/3 189/2/3
f 208/2/3 200/2/3 207/2/3
f 210/2/3 208/2/3 207/2/3
f 210/2/3 209/2/3 208/2/3
f 210/2/3 207/2/3 206/2/3
f 210/2/3 206/2/3 205/2/3
f 210/2/3 205/2/3 204/2/3
f 211/2/3 209/2/3 210/2/3
f 214/4/3 213/4/3 212/4/3
f 215/4/3 213/4/3 214/4/3
f 220/5/3 219/5/3 218/5/3
f 221/5/3 219/5/3 220/5/3
f 222/2/3 217/2/3 216/2/3
f 223/2/3 217/2/3 222/2/3
f 228/1/3 225/1/3 224/1/3
f 229/1/3 225/1/3 228/1/3
f 230/4/3 229/4/3 228/4/3
f 231/4/3 229/4/3 230/4/3
f 234/4/3 233/4/3 232/4/3
f 235/4/3 233/4/3 234/4/3
f 239/1/3 237/1/3 236/1/3
f 240/4/3 238/4/3 237/4/3
f 240/1/3 237/1/3 239/1/3
f 241/4/3 238/4/3 240/4/3
f 242/2/3 227/2/3 226/2/3
f 243/2/3 227/2/3 242/2/3
f 246/4/3 245/4/3 244/4/3
f 247/4/3 245/4/3 246/4/3
f 250/4/3 249/4/3 248/4/3
f 251/4/3 249/4/3 250/4/3
f 256/2/3 253/2/3 252/2/3
f 257/2/3 253/2/3 256/2/3
f 260/1/3 255/1/3 254/1/3
f 262/1/3 260/1/3 254/1/3
f 263/4/3 261/4/3 260/4/3
f 263/1/3 260/1/3 262/1/3
f 264/4/3 261/4/3 263/4/3
f 269/3/3 266/3/3 265/3/3
f 270/3/3 266/3/3 269/3/3
f 271/1/3 268/1/3 267/1/3
f 272/1/3 268/1/3 271/1/3
f 274/4/3 273/4/3 272/4/3
f 275/4/3 273/4/3 274/4/3
f 277/2/3 259/2/3 258/2/3
f 278/2/3 259/2/3 277/2/3
f 279/2/3 276/2/3 275/2/3
f 279/2/3 275/2/3 274/2/3
f 280/2/3 276/2/3 279/2/3
f 281/2/4 282/2/4 287/2/4
f 287/2/4 282/2/4 288/2/4
f 283/2/4 284/2/4 289/2/4
f 289/2/4 284/2/4 290/2/4
f 285/1/4 286/1/4 291/1/4
f 286/4/4 287/4/4 291/4/4
f 291/4/4 287/4/4 292/4/4
f 285/1/4 291/1/4 293/1/4
f 293/1/4 291/1/4 294/1/4
f 295/2/4 296/2/4 299/2/4
f 299/2/4 296/2/4 300/2/4
f 297/1/4 298/1/4 301/1/4
f 297/1/4 301/1/4 303/1/4
f 301/4/4 302/4/4 304/4/4
f 303/1/4 301/1/4 304/1/4
f 304/4/4 302/4/4 305/4/4
f 305/2/4 306/2/4 309/2/4
f 304/2/4 305/2/4 309/2/4
f 309/2/4 306/2/4 310/2/4
f 307/2/4 308/2/4 311/2/4
f 311/2/4 308/2/4 312/2/4
f 313/4/4 314/4/4 315/4/4
f 315/4/4 314/4/4 316/4/4
f 317/1/4 318/1/4 321/1/4
f 321/1/4 318/1/4 322/1/4
f 323/4/4 324/4/4 325/4/4
f 325/4/4 324/4/4 326/4/4
f 325/1/4 326/1/4 327/1/4
f 327/1/4 326/1/4 328/1/4
f 319/2/4 320/2/4 329/2/4
f 329/2/4 320/2/4 330/2/4
f 333/5/4 334/5/4 335/5/4
f 335/5/4 334/5/4 336/5/4
f 331/2/4 332/2/4 337/2/4
f 337/2/4 332/2/4 338/2/4
f 339/4/4 340/4/4 341/4/4
f 341/4/4 340/4/4 342/4/4
f 343/4/4 344/4/4 345/4/4
f 345/4/4 344/4/4 346/4/4
f 347/4/4 348/4/4 349/4/4
f 349/4/4 348/4/4 350/4/4
f 351/2/4 352/2/4 353/2/4
f 353/2/4 352/2/4 354/2/4
f 354/2/4 352/2/4 355/2/4
f 355/2/4 352/2/4 356/2/4
f 353/1/4 354/1/4 358/1/4
f 353/1/4 358/1/4 360/1/4
f 358/4/4 359/4/4 361/4/4
f 360/1/4 358/1/4 361/1/4
f 361/4/4 359/4/4 362/4/4
f 356/2/4 357/2/4 364/2/4
f 355/2/4 356/2/4 364/2/4
f 363/3/4 364/3/4 367/3/4
f 364/2/4 357/2/4 368/2/4
f 367/3/4 364/3/4 368/3/4
f 365/1/4 366/1/4 369/1/4
f 365/1/4 369/1/4 371/1/4
f 369/4/4 370/4/4 372/4/4
f 371/1/4 369/1/4 372/1/4
f 372/4/4 370/4/4 373/4/4
f 368/2/4 357/2/4 374/2/4
f 374/2/4 357/2/4 375/2/4
f 375/2/4 357/2/4 376/2/4
f 372/2/4 373/2/4 377/2/4
f 371/2/4 372/2/4 377/2/4
f 374/2/4 375/2/4 377/2/4
f 373/2/4 374/2/4 377/2/4
f 377/2/4 375/2/4 378/2/4
f 385/2/5 380/2/5 379/2/5
f 386/1/5 381/1/5 380/1/5
f 386/2/5 380/2/5 385/2/5
f 387/1/5 381/1/5 386/1/5
f 388/1/5 383/1/5 382/1/5
f 389/2/5 384/2/5 383/2/5
f 389/1/5 383/1/5 388/1/5
f 390/2/5 384/2/5 389/2/5
f 392/1/5 390/1/5 389/1/5
f 393/1/5 386/1/5 385/1/5
f 394/1/5 386/1/5 393/1/5
f 397/4/5 392/4/5 391/4/5
f 398/1/5 390/1/5 392/1/5
f 398/4/5 392/4/5 397/4/5
f 399/1/5 390/1/5 398/1/5
f 403/5/5 396/5/5 395/5/5
f 404/5/5 396/5/5 403/5/5
f 409/4/5 402/4/5 401/4/5
f 409/1/5 401/1/5 400/1/5
f 410/4/5 402/4/5 409/4/5
f 411/4/5 406/4/5 405/4/5
f 412/4/5 406/4/5 411/4/5
f 413/1/5 408/1/5 407/1/5
f 414/1/5 409/1/5 400/1/5
f 415/1/5 409/1/5 414/1/5
f 418/4/5 413/4/5 412/4/5
f 419/1/5 408/1/5 413/1/5
f 419/4/5 413/4/5 418/4/5
f 420/1/5 408/1/5 419/1/5
f 421/2/5 415/2/5 414/2/5
f 422/1/5 416/1/5 415/1/5
f 422/2/5 415/2/5 421/2/5
f 423/1/5 416/1/5 422/1/5
f 424/1/5 418/1/5 417/1/5
f 424/1/5 419/1/5 418/1/5
f 425/2/5 420/2/5 419/2/5
f 425/1/5 419/1/5 424/1/5
f 426/2/5 420/2/5 425/2/5
f 430/2/5 428/2/5 427/2/5
f 431/2/5 428/2/5 430/2/5
f 433/2/5 430/2/5 429/2/5
f 433/2/5 432/2/5 431/2/5
f 433/2/5 431/2/5 430/2/5
f 434/2/5 432/2/5 433/2/5
f 437/2/5 436/2/5 435/2/5
f 438/2/5 436/2/5 437/2/5
f 441/3/5 440/3/5 439/3/5
f 442/3/5 440/3/5 441/3/5
f 445/2/5 444/2/5 443/2/5
f 446/2/5 444/2/5 445/2/5
f 447/2/5 444/2/5 446/2/5
f 448/2/5 444/2/5 447/2/5
f 449/2/5 444/2/5 448/2/5
f 450/2/5 444/2/5 449/2/5
f 451/2/5 447/2/5 446/2/5
f 452/2/5 447/2/5 451/2/5
f 453/2/5 449/2/5 448/2/5
f 454/2/5 449/2/5 453/2/5
f 455/1/6 456/1/6 459/1/6
f 459/1/6 456/1/6 460/1/6
f 457/1/6 458/1/6 461/1/6
f 461/1/6 458/1/6 462/1/6
f 463/1/6 464/1/6 468/1/6
f 465/1/6 466/1/6 469/1/6
f 469/1/6 466/1/6 470/1/6
f 467/4/6 468/4/6 473/4/6
f 468/1/6 464/1/6 474/1/6
f 473/4/6 468/4/6 474/4/6
f 474/1/6 464/1/6 475/1/6
f 471/5/6 472/5/6 479/5/6
f 479/5/6 472/5/6 480/5/6
f 476/1/6 477/1/6 483/1/6
f 477/4/6 478/4/6 484/4/6
f 483/1/6 477/1/6 484/1/6
f 484/4/6 478/4/6 485/4/6
f 481/4/6 482/4/6 486/4/6
f 486/4/6 482/4/6 487/4/6
f 487/4/6 488/4/6 493/4/6
f 488/1/6 489/1/6 494/1/6
f 493/4/6 488/4/6 494/4/6
f 494/1/6 489/1/6 495/1/6
f 490/1/6 491/1/6 496/1/6
f 496/1/6 491/1/6 497/1/6
f 492/1/6 493/1/6 498/1/6
f 498/1/6 493/1/6 499/1/6
f 500/4/6 501/4/6 505/4/6
f 505/4/6 501/4/6 506/4/6
f 502/4/6 503/4/6 507/4/6
f 507/4/6 503/4/6 508/4/6
f 504/4/6 505/4/6 509/4/6
f 509/4/6 505/4/6 510/4/6
f 511/4/6 512/4/6 515/4/6
f 515/4/6 512/4/6 516/4/6
f 513/4/6 514/4/6 517/4/6
f 517/4/6 514/4/6 518/4/6
f 519/4/6 520/4/6 523/4/6
f 523/4/6 520/4/6 524/4/6
f 521/4/6 522/4/6 525/4/6
f 525/4/6 522/4/6 526/4/6
f 527/2/6 528/2/6 532/2/6
f 532/2/6 528/2/6 533/2/6
f 529/2/6 530/2/6 534/2/6
f 534/2/6 530/2/6 535/2/6
f 532/2/6 533/2/6 537/2/6
f 535/2/6 536/2/6 537/2/6
f 534/2/6 535/2/6 537/2/6
f 533/2/6 534/2/6 537/2/6
f 531/2/6 532/2/6 537/2/6
f 537/2/6 536/2/6 538/2/6
f 539/2/6 540/2/6 541/2/6
f 541/2/6 540/2/6 542/2/6
f 543/2/6 544/2/6 545/2/6
f 545/2/6 544/2/6 546/2/6
f 547/2/6 548/2/6 551/2/6
f 551/2/6 548/2/6 552/2/6
f 549/2/6 550/2/6 553/2/6
f 553/2/6 550/2/6 554/2/6
f 555/2/6 556/2/6 557/2/6
f 557/2/6 556/2/6 558/2/6
f 555/2/6 557/2/6 559/2/6
f 559/2/6 557/2/6 560/2/6
f 558/2/6 556/2/6 561/2/6
f 561/2/6 556/2/6 562/2/6
f 563/2/6 564/2/6 565/2/6
f 565/2/6 564/2/6 566/2/6
